<?xml version="1.0"?>
<svg xmlns="http://www.w3.org/2000/svg" width="512" height="512" viewBox="0 0 512 512"><g><circle cx="320" cy="344" r="8"/><circle cx="368" cy="344" r="8"/><circle cx="344" cy="320" r="8"/><circle cx="344" cy="368" r="8"/><path d="M192,336H176V320a8,8,0,0,0-16,0v16H144a8,8,0,0,0,0,16h16v16a8,8,0,0,0,16,0V352h16a8,8,0,0,0,0-16Z"/><path d="M476,48H36A28.031,28.031,0,0,0,8,76V324a28.031,28.031,0,0,0,28,28H96.06a71.683,71.683,0,0,0,8.32,26.41l-15.8,81.94a32.106,32.106,0,0,0,23.14,36.97l18.65,5a32.049,32.049,0,0,0,38.52-20.44l24.44-70.65a72.085,72.085,0,0,0,20.04-11.68A7.9,7.9,0,0,0,216,400h80a7.665,7.665,0,0,0,2.36-.36,71.946,71.946,0,0,0,19.92,11.59l24.44,70.64a32.045,32.045,0,0,0,38.52,20.45l18.65-5a32.109,32.109,0,0,0,23.14-36.96l-15.8-81.95A71.484,71.484,0,0,0,415.54,352H476a28.031,28.031,0,0,0,28-28V76A28.031,28.031,0,0,0,476,48ZM153.77,476.65a16.043,16.043,0,0,1-19.26,10.21l-18.65-5a16.054,16.054,0,0,1-11.57-18.48l13.09-67.86A71.734,71.734,0,0,0,167.61,416c2.45,0,4.88-.13,7.27-.37ZM167.61,400a56.058,56.058,0,0,1-55.94-53.73,7.972,7.972,0,0,0,0-4.54A55.993,55.993,0,1,1,167.61,400Zm116.56-16H227.44a71.82,71.82,0,0,0,0-80h56.73a71.82,71.82,0,0,0,0,80ZM288,344a56,56,0,1,1,56,56A56.062,56.062,0,0,1,288,344ZM407.32,463.39a16.048,16.048,0,0,1-11.57,18.47l-18.65,5a16.04,16.04,0,0,1-19.26-10.22l-21.11-61.01c2.39.24,4.82.37,7.27.37a71.751,71.751,0,0,0,50.23-20.48ZM488,324a12.01,12.01,0,0,1-12,12H415.54a71.943,71.943,0,0,0-117.18-47.64A7.665,7.665,0,0,0,296,288H216a7.9,7.9,0,0,0-2.63.45A71.96,71.96,0,0,0,96.06,336H36a12.01,12.01,0,0,1-12-12V76A12.01,12.01,0,0,1,36,64H476a12.01,12.01,0,0,1,12,12Z"/><path d="M429.657,82.343a8,8,0,0,0-11.314,0l-112,112a8,8,0,0,0,11.314,11.314l112-112A8,8,0,0,0,429.657,82.343Z"/><path d="M324,152a7.976,7.976,0,0,0,5.657-2.343l56-56a8,8,0,0,0-11.314-11.314l-56,56A8,8,0,0,0,324,152Z"/><path d="M458.343,86.343l-84,84a8,8,0,0,0,11.314,11.314l84-84a8,8,0,0,0-11.314-11.314Z"/><path d="M354.343,186.343l-8,8a8,8,0,0,0,11.314,11.314l8-8a8,8,0,0,0-11.314-11.314Z"/></g></svg>
