<?xml version="1.0"?>
<svg xmlns="http://www.w3.org/2000/svg" width="512" height="512" viewBox="0 0 512 512"><g><path d="M476,192H464v-4a28.031,28.031,0,0,0-28-28H392a48.051,48.051,0,0,0-48-48V88a40,40,0,0,0-80,0v24H216V56a48,48,0,0,0-96,0V160H76a28.031,28.031,0,0,0-28,28v4H36A28.031,28.031,0,0,0,8,220v8a28.031,28.031,0,0,0,28,28H48v4a28.031,28.031,0,0,0,28,28h44v64a48.051,48.051,0,0,0,48,48h40v24a40,40,0,0,0,80,0V400h8v56a48,48,0,0,0,96,0V288h44a28.031,28.031,0,0,0,28-28v-4h12a28.031,28.031,0,0,0,28-28v-8A28.031,28.031,0,0,0,476,192ZM48,240H36a12.01,12.01,0,0,1-12-12v-8a12.01,12.01,0,0,1,12-12H48ZM136,56a32,32,0,0,1,64,0v80a8,8,0,0,0,16,0v-8h56a8,8,0,0,0,8-8V88a24,24,0,0,1,48,0v32a8,8,0,0,0,8,8h8a32.036,32.036,0,0,1,32,32H136ZM376,456a32,32,0,0,1-64,0V352a8,8,0,0,0-16,0v32H280a8,8,0,0,0-8,8v32a24,24,0,0,1-48,0V392a8,8,0,0,0-8-8H168a32.036,32.036,0,0,1-32-32V288H376Zm72-216H392a8,8,0,0,0,0,16h56v4a12.01,12.01,0,0,1-12,12H76a12.01,12.01,0,0,1-12-12V188a12.01,12.01,0,0,1,12-12H436a12.01,12.01,0,0,1,12,12Zm40-12a12.01,12.01,0,0,1-12,12H464V208h12a12.01,12.01,0,0,1,12,12Z"/><path d="M96,208h88a8,8,0,0,0,0-16H96a8,8,0,0,0,0,16Z"/><path d="M216,232H184a8,8,0,0,0,0,16h32a8,8,0,0,0,0-16Z"/><path d="M264,232H248a8,8,0,0,0,0,16h16a8,8,0,0,0,0-16Z"/><path d="M424,208a8,8,0,0,0-8-8H280a8,8,0,0,0,0,16H416A8,8,0,0,0,424,208Z"/><path d="M144,232H80a8,8,0,0,0,0,16h64a8,8,0,0,0,0-16Z"/><path d="M368,240H352a8,8,0,0,0,0,16h16a8,8,0,0,0,0-16Z"/></g></svg>
