<svg height="512" viewBox="0 0 512 512" width="512" xmlns="http://www.w3.org/2000/svg"><g><path d="m496 280h-72v-24a8 8 0 0 0 -8-8h-96a8 8 0 0 0 -8 8v24h-224v-184a40 40 0 0 1 80 0v16.68a48.069 48.069 0 0 0 -40 47.32v8a8 8 0 0 0 8 8h80a8 8 0 0 0 8-8v-8a48.069 48.069 0 0 0 -40-47.32v-16.68a56 56 0 0 0 -112 0v184h-56a8 8 0 0 0 -8 8v24a8 8 0 0 0 8 8h24v56a88.145 88.145 0 0 0 64 84.67v11.33a8 8 0 0 0 16 0v-8.37c2.64.24 5.3.37 8 .37h256c2.7 0 5.36-.13 8-.37v8.37a8 8 0 0 0 16 0v-11.33a88.145 88.145 0 0 0 64-84.67v-56h24a8 8 0 0 0 8-8v-24a8 8 0 0 0 -8-8zm-288-120h-64a32 32 0 0 1 64 0zm120 104h80v136h-80zm-304 40v-8h288v8zm432 72a72.083 72.083 0 0 1 -72 72h-256a72.083 72.083 0 0 1 -72-72v-56h256v88a8 8 0 0 0 8 8h96a8 8 0 0 0 8-8v-88h32zm32-72h-64v-8h64z"/><path d="m168 336h-88a8 8 0 0 0 0 16h88a8 8 0 0 0 0-16z"/><path d="m208 336h-16a8 8 0 0 0 0 16h16a8 8 0 0 0 0-16z"/><path d="m280 216a24 24 0 1 0 -24-24 24.027 24.027 0 0 0 24 24zm0-32a8 8 0 1 1 -8 8 8.009 8.009 0 0 1 8-8z"/><path d="m336 168a40 40 0 1 0 -40-40 40.045 40.045 0 0 0 40 40zm0-64a24 24 0 1 1 -24 24 24.028 24.028 0 0 1 24-24z"/><path d="m360 192a32 32 0 1 0 32-32 32.036 32.036 0 0 0 -32 32zm32-16a16 16 0 1 1 -16 16 16.019 16.019 0 0 1 16-16z"/></g></svg>