<?xml version="1.0"?>
<svg xmlns="http://www.w3.org/2000/svg" width="512" height="512" viewBox="0 0 512 512"><g><path d="M496,105H456V89a8,8,0,0,0-8-8H292a43.964,43.964,0,0,0-36,18.75A43.964,43.964,0,0,0,220,81H64a8,8,0,0,0-8,8v16H16a8,8,0,0,0-8,8V424a8,8,0,0,0,8,8H496a8,8,0,0,0,8-8V113A8,8,0,0,0,496,105ZM264,125a28.031,28.031,0,0,1,28-28H440V384H264ZM72,97H220a28.031,28.031,0,0,1,28,28V384H72ZM488,416H24V121H56V392a8,8,0,0,0,8,8H448a8,8,0,0,0,8-8V121h32Z"/><path d="M88,208H232a8,8,0,0,0,8-8V136a8,8,0,0,0-8-8H88a8,8,0,0,0-8,8v64A8,8,0,0,0,88,208Zm8-64H224v48H96Z"/><path d="M88,240H232a8,8,0,0,0,0-16H88a8,8,0,0,0,0,16Z"/><path d="M88,272H232a8,8,0,0,0,0-16H88a8,8,0,0,0,0,16Z"/><path d="M88,336H232a8,8,0,0,0,0-16H88a8,8,0,0,0,0,16Z"/><path d="M88,368h95a8,8,0,0,0,0-16H88a8,8,0,0,0,0,16Z"/><path d="M88,304H199a8,8,0,0,0,0-16H88a8,8,0,0,0,0,16Z"/><path d="M232,288h-8a8,8,0,0,0,0,16h8a8,8,0,0,0,0-16Z"/><path d="M280,144H424a8,8,0,0,0,0-16H280a8,8,0,0,0,0,16Z"/><path d="M280,176H424a8,8,0,0,0,0-16H280a8,8,0,0,0,0,16Z"/><path d="M280,240H424a8,8,0,0,0,0-16H280a8,8,0,0,0,0,16Z"/><path d="M280,272H424a8,8,0,0,0,0-16H280a8,8,0,0,0,0,16Z"/><path d="M280,208H391a8,8,0,0,0,0-16H280a8,8,0,0,0,0,16Z"/><path d="M424,192h-8a8,8,0,0,0,0,16h8a8,8,0,0,0,0-16Z"/><path d="M424,288H344a8,8,0,0,0-8,8v64a8,8,0,0,0,8,8h80a8,8,0,0,0,8-8V296A8,8,0,0,0,424,288Zm-8,64H352V304h64Z"/><path d="M280,304h40a8,8,0,0,0,0-16H280a8,8,0,0,0,0,16Z"/><path d="M280,336h40a8,8,0,0,0,0-16H280a8,8,0,0,0,0,16Z"/><path d="M280,368h40a8,8,0,0,0,0-16H280a8,8,0,0,0,0,16Z"/></g></svg>
