<svg height="512" viewBox="0 0 512 512" width="512" xmlns="http://www.w3.org/2000/svg"><g><path d="m376 232h-72v-16h48a24.032 24.032 0 0 0 24-24v-16a8 8 0 0 0 0-16v-16a24 24 0 1 0 -48 0v24h-24v-16a8 8 0 0 0 0-16v-56h8a8 8 0 0 0 0-16h-8v-8a48 48 0 0 0 -95.32-8h-16.68a8 8 0 0 0 0 16h16v56h-16v-24a24 24 0 0 0 -48 0v16a8 8 0 0 0 0 16v16a24.032 24.032 0 0 0 24 24h40v40h-16a8 8 0 0 0 0 16h16v8h-72a8 8 0 0 0 -8 8v216a48.051 48.051 0 0 0 48 48h160a48.051 48.051 0 0 0 48-48v-216a8 8 0 0 0 -8-8zm-152-8h8a8 8 0 0 0 0-16h-8v-144h8a8 8 0 0 0 0-16h-6.99a32.005 32.005 0 0 1 62.99 8v8h-8a8 8 0 0 0 0 16h8v56h-16a8 8 0 0 0 0 16h16v24a8 8 0 0 0 8 8h40a8 8 0 0 0 8-8v-32a8 8 0 0 1 16 0v16h-8a8 8 0 0 0 0 16h8v16a8.011 8.011 0 0 1 -8 8h-56a8 8 0 0 0 -8 8v24h-64zm-56-72a8.011 8.011 0 0 1 -8-8v-16a8 8 0 0 0 0-16v-16a8 8 0 1 1 16 0v32a8 8 0 0 0 8 8h24v16zm200 304a32.036 32.036 0 0 1 -32 32h-160a32.036 32.036 0 0 1 -32-32v-208h224z"/><path d="m256 112h8a8 8 0 0 0 0-16h-8a8 8 0 0 0 0 16z"/><path d="m264 168a8 8 0 0 0 -8-8h-16a8 8 0 0 0 0 16h16a8 8 0 0 0 8-8z"/><path d="m272 192h-8a8 8 0 0 0 0 16h8a8 8 0 0 0 0-16z"/><path d="m240 264h-72a8 8 0 0 0 0 16h72a8 8 0 0 0 0-16z"/><path d="m280 264h-16a8 8 0 0 0 0 16h16a8 8 0 0 0 0-16z"/></g></svg>