<?xml version="1.0"?>
<svg xmlns="http://www.w3.org/2000/svg" width="512" height="512" viewBox="0 0 512 512"><g><path d="M488,192H400V40A32.036,32.036,0,0,0,368,8H144a32.036,32.036,0,0,0-32,32V88H24a8,8,0,0,0-8,8V224a8,8,0,0,0,8,8h88V472a32.036,32.036,0,0,0,32,32H368a32.036,32.036,0,0,0,32-32V336h88a8,8,0,0,0,8-8V200A8,8,0,0,0,488,192ZM301.44,24l-4.5,16H214.25l-4-16ZM32,216V104H224V216H208a8,8,0,0,0-8,8v20.69l-26.34-26.35A8.008,8.008,0,0,0,168,216ZM384,472a16.021,16.021,0,0,1-16,16H144a16.021,16.021,0,0,1-16-16V232h36.69l37.65,37.66A8,8,0,0,0,216,264V232h16a8,8,0,0,0,8-8V96a8,8,0,0,0-8-8H128V40a16.021,16.021,0,0,1,16-16h49.75l6.49,25.94A8,8,0,0,0,208,56h95a8,8,0,0,0,7.7-5.83L318.06,24H368a16.021,16.021,0,0,1,16,16V192H296a8,8,0,0,0-8,8V328a8,8,0,0,0,8,8h16v32a8,8,0,0,0,13.66,5.66L363.31,336H384Zm96-152H360a8.008,8.008,0,0,0-5.66,2.34L328,348.69V328a8,8,0,0,0-8-8H304V208H480Z"/><path d="M216,456H152a8,8,0,0,0,0,16h64a8,8,0,0,0,0-16Z"/><path d="M248,456h-8a8,8,0,0,0,0,16h8a8,8,0,0,0,0-16Z"/></g></svg>
