<svg height="512" viewBox="0 0 512 512" width="512" xmlns="http://www.w3.org/2000/svg"><g><path d="m496 376h-79.98l7.96-127.5a7.99 7.99 0 0 0 -7.98-8.5h-112a7.99 7.99 0 0 0 -7.98 8.5l7.96 127.5h-68.66a48.059 48.059 0 0 0 20.05-51.5l-21.53-100.72a8.008 8.008 0 0 0 6.16-7.78v-48a8 8 0 0 0 -8-8h-.46l19.95-53.19a7.992 7.992 0 0 0 -7.49-10.81h-144a7.992 7.992 0 0 0 -7.49 10.81l19.95 53.19h-.46a8 8 0 0 0 -8 8v48a8.008 8.008 0 0 0 6.16 7.78l-21.53 100.72a48.059 48.059 0 0 0 20.05 51.5h-92.68a8 8 0 0 0 -8 8v24a8 8 0 0 0 8 8h480a8 8 0 0 0 8-8v-24a8 8 0 0 0 -8-8zm-88.52-120-1.5 24.05c-13.13.46-20.47 5.33-26.42 9.29-5.58 3.72-9.98 6.66-19.56 6.66s-13.98-2.94-19.56-6.66c-5.95-3.96-13.29-8.83-26.42-9.29l-1.5-24.05zm-2.5 40.11-4.5 71.89h-80.96l-4.5-71.89c7.55.56 11.59 3.24 16.54 6.55 6.25 4.16 14.02 9.34 28.44 9.34s22.19-5.18 28.44-9.34c4.95-3.31 8.99-5.99 16.54-6.55zm-293.44-184.11h120.92l-18 48h-84.92zm14.93 112h91.06l13.76 64.38c-13.34 1.17-21.43 4.96-28.7 8.38-8.25 3.89-15.38 7.24-30.59 7.24s-22.34-3.35-30.59-7.24c-7.27-3.42-15.36-7.21-28.7-8.38zm-6.47-16v-32h104v32zm-15.81 120.24.06-.27 5.09-23.82c11.67.7 18.03 3.69 25.25 7.09 8.73 4.11 18.62 8.76 37.41 8.76s28.68-4.65 37.41-8.76c7.22-3.4 13.58-6.39 25.25-7.09l5.09 23.82.06.27a32 32 0 0 1 -31.04 39.76h-73.54a32 32 0 0 1 -31.04-39.76zm383.81 71.76h-464v-8h464z"/><path d="m132 352h48a8 8 0 0 0 0-16h-48a8 8 0 0 0 0 16z"/><path d="m204 352h8a8 8 0 0 0 0-16h-8a8 8 0 0 0 0 16z"/></g></svg>