<?xml version="1.0"?>
<svg xmlns="http://www.w3.org/2000/svg" width="512" height="512" viewBox="0 0 512 512"><g><path d="M496,272H472V240a8,8,0,0,0-8-8H437.65l-15.11-42.67A7.989,7.989,0,0,0,415,184H256v-8h24a8,8,0,0,0,0-16H168a8,8,0,0,0,0,16h24v8H32a8,8,0,0,0-7.59,5.47l-16,48A8,8,0,0,0,16,248H40v24H16a8,8,0,0,0-8,8v24a8,8,0,0,0,8,8H40V448a48.051,48.051,0,0,0,48,48H424a48.051,48.051,0,0,0,48-48V312h24a8,8,0,0,0,8-8V280A8,8,0,0,0,496,272ZM40,296H24v-8H40ZM208,176h32v8H208ZM27.1,232l10.67-32H409.35l11.33,32ZM352,248V433a8,8,0,0,1-16,0V248Zm-80,40H240a8,8,0,0,0-8,8v64a8,8,0,0,1-16,0V248h80v72a8,8,0,0,1-16,0V296A8,8,0,0,0,272,288ZM456,448a32.03,32.03,0,0,1-32,32H88a32.03,32.03,0,0,1-32-32V248H200V360a24,24,0,0,0,48,0V304h16v16a24,24,0,0,0,48,0V248h8V433a24,24,0,0,0,48,0V248h88Zm32-152H472v-8h16Z"/><path d="M176,448H96a8,8,0,0,0,0,16h80a8,8,0,0,0,0-16Z"/><path d="M208,448h-8a8,8,0,0,0,0,16h8a8,8,0,0,0,0-16Z"/><path d="M480,88H416V80a24.032,24.032,0,0,0,24-24V40a24.032,24.032,0,0,0-24-24H272a24.032,24.032,0,0,0-24,24V56a24.032,24.032,0,0,0,24,24h96v8a24.032,24.032,0,0,0-24,24v16a24.032,24.032,0,0,0,24,24h72v40a24,24,0,0,0,48,0V150.63A24.044,24.044,0,0,0,504,128V112A24.032,24.032,0,0,0,480,88Zm8,40a8.011,8.011,0,0,1-8,8,8,8,0,0,0-8,8v48a8,8,0,0,1-16,0V144a8,8,0,0,0-8-8H368a8.011,8.011,0,0,1-8-8V112a8.011,8.011,0,0,1,8-8h8a8,8,0,0,0,8-8V72a8,8,0,0,0-8-8H272a8.011,8.011,0,0,1-8-8V40a8.011,8.011,0,0,1,8-8H416a8.011,8.011,0,0,1,8,8V56a8.011,8.011,0,0,1-8,8h-8a8,8,0,0,0-8,8V96a8,8,0,0,0,8,8h72a8.011,8.011,0,0,1,8,8Z"/><path d="M208,80a32,32,0,1,0-32-32A32.036,32.036,0,0,0,208,80Zm0-48a16,16,0,1,1-16,16A16.019,16.019,0,0,1,208,32Z"/></g></svg>
