<svg xmlns="http://www.w3.org/2000/svg" width="512" height="512" viewBox="0 0 512 512">    <g>    <path d="M216,144v64a8,8,0,0,0,8,8h64a8,8,0,0,0,8-8V144a8,8,0,0,0-8-8H224A8,8,0,0,0,216,144Zm48,8h16v16H264Zm0,32h16v16H264Zm-32-32h16v16H232Zm0,32h16v16H232Z"/>    <path d="M496,480h-8a8,8,0,0,0,0,16h8a8,8,0,0,0,0-16Z"/>    <path d="M501.66,258.34,440,196.69V112a8,8,0,0,0,8-8V80a8,8,0,0,0-8-8H376a8,8,0,0,0-8,8v24a8,8,0,0,0,8,8v20.69L261.66,18.34a8.015,8.015,0,0,0-11.32,0l-240,240A8.008,8.008,0,0,0,8,264v48a8,8,0,0,0,13.66,5.66L56,283.31V480H16a8,8,0,0,0,0,16H464a8,8,0,0,0,0-16h-8V283.31l34.34,34.35A8,8,0,0,0,504,312V264A8.008,8.008,0,0,0,501.66,258.34ZM384,88h48v8H384Zm40,24v68.69l-32-32V112Zm16,368H72V267.31L251.82,87.5,256,83.68l4.18,3.82L440,267.31Zm48-187.31L261.66,66.34a8.015,8.015,0,0,0-11.32,0L24,292.69V267.31l232-232,232,232Z"/>    <path d="M80,272V456a8,8,0,0,0,8,8H424a8,8,0,0,0,8-8V272a8,8,0,0,0-8-8H88A8,8,0,0,0,80,272ZM304,376V344h48l.01,32H304Zm40,16v8H312v-8Zm40,24v8H128v-8Zm-16,32H144v-8H368ZM176,280h48v8H176Zm-2.58,24h53.16l9.6,24H163.82ZM248,344v8H152v-8ZM96,280h64v14.46L146.58,328H144a8,8,0,0,0-8,8v24a8,8,0,0,0,8,8H256a8,8,0,0,0,8-8V336a8,8,0,0,0-8-8h-2.58L240,294.46V280H416V448H384v-8h8a8,8,0,0,0,8-8V408a8,8,0,0,0-8-8H360V389.83A15.991,15.991,0,0,0,368,376V352h8a8,8,0,0,0,0-16h-8a8,8,0,0,0-8-8H296a8,8,0,0,0-8,8h-8a8,8,0,0,0,0,16h8v24a15.991,15.991,0,0,0,8,13.83V400H120a8,8,0,0,0-8,8v24a8,8,0,0,0,8,8h8v8H96Z"/>  </g></svg>