<?xml version="1.0"?>
<svg xmlns="http://www.w3.org/2000/svg" width="512" height="512" viewBox="0 0 512 512"><g><path d="M312,8C206.13,8,120,94.13,120,200a191.061,191.061,0,0,0,40.39,117.67l-37.08,37.07a7.994,7.994,0,0,0-11.31.01L23.63,443.11a28.029,28.029,0,0,0,0,39.6l5.66,5.66a28.029,28.029,0,0,0,39.6,0L157.25,400a7.994,7.994,0,0,0,.01-11.31l37.07-37.08A191.061,191.061,0,0,0,312,392c105.87,0,192-86.13,192-192S417.87,8,312,8ZM57.57,477.05a12.011,12.011,0,0,1-16.97,0l-5.65-5.65a12.011,12.011,0,0,1,0-16.97l82.71-82.71,22.62,22.62Zm88.37-99.68-11.31-11.31,33.94-33.94,11.31,11.31ZM312,376c-97.05,0-176-78.95-176-176S214.95,24,312,24s176,78.95,176,176S409.05,376,312,376Z"/><path d="M312,32c-92.64,0-168,75.36-168,168s75.36,168,168,168,168-75.36,168-168S404.64,32,312,32Zm0,320c-83.81,0-152-68.19-152-152S228.19,48,312,48s152,68.19,152,152S395.81,352,312,352Z"/><path d="M313.255,88.007a112.233,112.233,0,0,0-31.308,4.074,27.484,27.484,0,0,0-16.753,13.194,28.3,28.3,0,0,0-2.45,21.818A32.015,32.015,0,0,1,234.565,167.9a32.642,32.642,0,0,1-4.8.023,27.854,27.854,0,0,0-29.62,26.4c-.057,1.133-.1,2.271-.119,3.408a112.348,112.348,0,0,0,110.585,114.26c.471.006.938.009,1.408.009A111.994,111.994,0,0,0,424,199.158C423.551,138.533,373.872,88.671,313.255,88.007Zm66.464,180.04a96.1,96.1,0,0,1-163.7-70q.028-1.467.1-2.922a11.808,11.808,0,0,1,4-8.3,11.6,11.6,0,0,1,7.735-2.971c.268,0,.537.01.805.029a49.022,49.022,0,0,0,7.138-.032,48.016,48.016,0,0,0,42.314-61.21,12.417,12.417,0,0,1,1.054-9.574,11.6,11.6,0,0,1,7.065-5.574,96.1,96.1,0,0,1,26.847-3.49c51.956.569,94.536,43.307,94.918,95.269A95.3,95.3,0,0,1,379.719,268.047Z"/><path d="M344,176a40,40,0,1,0,40,40A40.045,40.045,0,0,0,344,176Zm0,64a24,24,0,1,1,24-24A24.028,24.028,0,0,1,344,240Z"/></g></svg>
