<?xml version="1.0"?>
<svg xmlns="http://www.w3.org/2000/svg" width="512" height="512" viewBox="0 0 512 512"><g><path d="M472,272a8,8,0,0,0,8-8V184a8,8,0,0,0-8-8H392a8,8,0,0,0-8,8v72H352a24,24,0,0,0-9.98,45.82L329.97,344H288V248h8a8,8,0,0,0,8-8v-8h16a8,8,0,0,0,0-16H304v-8a8,8,0,0,0-8-8H232a24,24,0,0,0,0,48h4.94l-29.86,90.62A56.1,56.1,0,0,0,168,392a8,8,0,0,0,8,8h8a39.947,39.947,0,0,0,16.03,32H172v-4a28.034,28.034,0,0,0-27.45-27.99l4.27-64.03A28.034,28.034,0,0,0,176,308V204a28.031,28.031,0,0,0-28-28H128v-8a24.032,24.032,0,0,0,24-24V120a47.614,47.614,0,0,0-3.92-18.97,5.616,5.616,0,0,0-.25-.56,47.973,47.973,0,0,0-87.66,0,5.616,5.616,0,0,0-.25.56A47.614,47.614,0,0,0,56,120v24a24.032,24.032,0,0,0,24,24v8H60a28.031,28.031,0,0,0-28,28V308a28.034,28.034,0,0,0,27.18,27.98l4.27,64.03A28.034,28.034,0,0,0,36,428v4H16a8,8,0,0,0,0,16H464a8,8,0,0,0,0-16H439.97A39.947,39.947,0,0,0,456,400h16a8,8,0,0,0,8-8V320a32.01,32.01,0,0,0-16-27.69V272ZM232,232a8,8,0,0,1,0-16Zm-72,76a12.014,12.014,0,0,1-8,11.31V304h8ZM148,192a12.01,12.01,0,0,1,12,12v84h-8V216a8,8,0,0,0-16,0v64H112V192ZM96,176v-8h16v8Zm8-88a31.876,31.876,0,0,1,21.13,8H82.87A31.876,31.876,0,0,1,104,88ZM72,120a32,32,0,0,1,1.01-8h61.98a32,32,0,0,1,1.01,8v8H72Zm0,24h64a8.011,8.011,0,0,1-8,8H80A8.011,8.011,0,0,1,72,144ZM56,319.31A12.014,12.014,0,0,1,48,308v-4h8ZM56,216v72H48V204a12.01,12.01,0,0,1,12-12H96v88H72V216a8,8,0,0,0-16,0ZM96,432H52v-4a12.01,12.01,0,0,1,12-12H96Zm8-112a8,8,0,0,0-8,8v72H79.48L72.55,296h62.9l-6.93,104H112V328A8,8,0,0,0,104,320Zm52,112H112V416h32a12.01,12.01,0,0,1,12,12ZM424,192h16v24H424Zm-72,80h96v16H352a8,8,0,0,1,0-16ZM248,216h40v16H248ZM184.8,384a40.01,40.01,0,0,1,78.4,0ZM224,424a24.032,24.032,0,0,1-24-24h48A24.032,24.032,0,0,1,224,424Zm23.97,8A39.947,39.947,0,0,0,264,400H376a39.947,39.947,0,0,0,16.03,32ZM416,424a24.032,24.032,0,0,1-24-24h48A24.032,24.032,0,0,1,416,424Zm-39.2-40a40.01,40.01,0,0,1,78.4,0ZM464,363.19A55.982,55.982,0,0,0,360.58,384H279.42a56.079,56.079,0,0,0-54.63-47.98l29-88.02H272V352a8,8,0,0,0,8,8h56a8,8,0,0,0,7.69-5.8L358.03,304H448a16.021,16.021,0,0,1,16,16ZM400,256V192h8v32a8,8,0,0,0,8,8h32a8,8,0,0,0,8-8V192h8v64Z"/><path d="M496,432h-8a8,8,0,0,0,0,16h8a8,8,0,0,0,0-16Z"/></g></svg>
