<?xml version="1.0"?>
<svg xmlns="http://www.w3.org/2000/svg" width="512" height="512" viewBox="0 0 512 512"><g><path d="M216,456H152a8,8,0,0,0,0,16h64a8,8,0,0,0,0-16Z"/><path d="M248,456h-8a8,8,0,0,0,0,16h8a8,8,0,0,0,0-16Z"/><path d="M480,432H448V368h16a8,8,0,0,0,8-8V280a8,8,0,0,0-8-8H400V40A32.042,32.042,0,0,0,368,8H144a32.042,32.042,0,0,0-32,32V208H96a24,24,0,0,0,0,48h4.94L71.08,346.62A56.1,56.1,0,0,0,32,400a8,8,0,0,0,8,8h8a39.808,39.808,0,0,0,8.02,24H32a8,8,0,0,0,0,16h80v24a32.042,32.042,0,0,0,32,32H368a32.042,32.042,0,0,0,32-32V448h80a8,8,0,0,0,0-16ZM96,240a8,8,0,0,1,0-16Zm312,48h16v24H408Zm-16,80h16v24H392ZM301.44,24l-4.5,16H214.25l-4-16ZM128,40a16.021,16.021,0,0,1,16-16h49.75l6.49,25.94A8,8,0,0,0,208,56h95a8,8,0,0,0,7.7-5.83L318.06,24H368a16.021,16.021,0,0,1,16,16V272a8,8,0,0,0-8,8v72H360a8,8,0,0,0-8,8v72H311.98A39.808,39.808,0,0,0,320,408h16a8,8,0,0,0,8-8V328a32.01,32.01,0,0,0-16-27.69V280h8a8,8,0,0,0,8-8V192a8,8,0,0,0-8-8H256a8,8,0,0,0-8,8v72H216a24,24,0,0,0-9.98,45.82L193.97,352H152V256h8a8,8,0,0,0,8-8v-8h16a8,8,0,0,0,0-16H168v-8a8,8,0,0,0-8-8H128ZM240.8,392a40.01,40.01,0,0,1,78.4,0ZM304,408a24,24,0,0,1-48,0Zm-55.98,24H128V408H240A39.808,39.808,0,0,0,248.02,432ZM264,264V200h8v32a8,8,0,0,0,8,8h32a8,8,0,0,0,8-8V200h8v64Zm48,16v16H216a8,8,0,0,1,0-16Zm-24-56V200h16v24Zm-176,0h40v16H112Zm5.79,32H136V360a8,8,0,0,0,8,8h56a8,8,0,0,0,7.69-5.8L222.03,312H312a16.021,16.021,0,0,1,16,16v43.19A55.982,55.982,0,0,0,224.58,392H143.42a56.079,56.079,0,0,0-54.63-47.98ZM88,432a24.032,24.032,0,0,1-24-24h48A24.032,24.032,0,0,1,88,432ZM48.8,392a40.01,40.01,0,0,1,78.4,0ZM384,472a16.021,16.021,0,0,1-16,16H144a16.021,16.021,0,0,1-16-16V448H384Zm48-40H368V368h8v32a8,8,0,0,0,8,8h32a8,8,0,0,0,8-8V368h8Zm-40-80V320a8,8,0,0,0,8,8h32a8,8,0,0,0,8-8V288h16v64Z"/><circle cx="296" cy="168" r="8"/><path d="M317.336,144.15a32,32,0,0,0-42.672,0,8,8,0,1,0,10.672,11.922,16,16,0,0,1,21.328,0,8,8,0,0,0,10.672-11.922Z"/><path d="M269.335,138.184a40,40,0,0,1,53.33,0,8,8,0,1,0,10.67-11.922,56,56,0,0,0-74.67,0,8,8,0,0,0,10.67,11.922Z"/></g></svg>
