<?xml version="1.0"?>
<svg xmlns="http://www.w3.org/2000/svg" width="512" height="512" viewBox="0 0 512 512"><g><path d="M496,136H456V120a8,8,0,0,0-8-8H292c-.13,0-.27,0-.4.01A46.106,46.106,0,0,0,256,131.6a46.106,46.106,0,0,0-35.6-19.59c-.13-.01-.27-.01-.4-.01H144V72a8.009,8.009,0,0,0-12.44-6.66L112,78.38,92.44,65.34A8.009,8.009,0,0,0,80,72v40H64a8,8,0,0,0-8,8v16H16a8,8,0,0,0-8,8V456a8,8,0,0,0,8,8H376v16a8.009,8.009,0,0,0,12.44,6.66L408,473.62l19.56,13.04A8.026,8.026,0,0,0,432,488a8.015,8.015,0,0,0,8-8V464h56a8,8,0,0,0,8-8V144A8,8,0,0,0,496,136ZM96,86.95l11.56,7.71a8.013,8.013,0,0,0,8.88,0L128,86.95V112H96ZM72,128H219.79c15.83.89,28.21,13.59,28.21,29V416H72ZM376,448H24V152H56V424a8,8,0,0,0,8,8H376Zm48,17.05-11.56-7.71a8.026,8.026,0,0,0-8.88,0L392,465.05V432h32ZM264,416V157c0-15.41,12.38-28.11,28.21-29H440V416Zm224,32H440V432h8a8,8,0,0,0,8-8V152h32Z"/><path d="M88,240H232a8,8,0,0,0,8-8V168a8,8,0,0,0-8-8H88a8,8,0,0,0-8,8v64A8,8,0,0,0,88,240Zm8-64H224v48H96Z"/><path d="M88,272H232a8,8,0,0,0,0-16H88a8,8,0,0,0,0,16Z"/><path d="M88,304H232a8,8,0,0,0,0-16H88a8,8,0,0,0,0,16Z"/><path d="M88,368H232a8,8,0,0,0,0-16H88a8,8,0,0,0,0,16Z"/><path d="M88,400h95a8,8,0,0,0,0-16H88a8,8,0,0,0,0,16Z"/><path d="M88,336H199a8,8,0,0,0,0-16H88a8,8,0,0,0,0,16Z"/><path d="M232,320h-8a8,8,0,0,0,0,16h8a8,8,0,0,0,0-16Z"/><path d="M280,176H424a8,8,0,0,0,0-16H280a8,8,0,0,0,0,16Z"/><path d="M280,208H424a8,8,0,0,0,0-16H280a8,8,0,0,0,0,16Z"/><path d="M280,272H424a8,8,0,0,0,0-16H280a8,8,0,0,0,0,16Z"/><path d="M280,304H424a8,8,0,0,0,0-16H280a8,8,0,0,0,0,16Z"/><path d="M280,240H391a8,8,0,0,0,0-16H280a8,8,0,0,0,0,16Z"/><path d="M424,224h-8a8,8,0,0,0,0,16h8a8,8,0,0,0,0-16Z"/><path d="M424,320H344a8,8,0,0,0-8,8v64a8,8,0,0,0,8,8h80a8,8,0,0,0,8-8V328A8,8,0,0,0,424,320Zm-8,64H352V336h64Z"/><path d="M280,336h40a8,8,0,0,0,0-16H280a8,8,0,0,0,0,16Z"/><path d="M280,368h40a8,8,0,0,0,0-16H280a8,8,0,0,0,0,16Z"/><path d="M280,400h40a8,8,0,0,0,0-16H280a8,8,0,0,0,0,16Z"/><path d="M463.86,32.83h-248a8.062,8.062,0,0,0-3.15.64l-56,24a8,8,0,0,0,0,14.71l56,24a7.9,7.9,0,0,0,3.15.65h248a24.032,24.032,0,0,0,24-24v-16A24.025,24.025,0,0,0,463.86,32.83ZM192,69.9l-11.83-5.07L192,59.76Zm23.86,10.22L208,76.76V52.9l7.86-3.37Zm200,.71h-184v-32h184Zm24,0h-8v-32h8Zm32-8a8.011,8.011,0,0,1-8,8h-8v-32h8a8.011,8.011,0,0,1,8,8Z"/><path d="M367.857,56.828h-112a8,8,0,0,0,0,16h112a8,8,0,0,0,0-16Z"/><path d="M399.857,56.828h-8a8,8,0,0,0,0,16h8a8,8,0,0,0,0-16Z"/></g></svg>
