<svg height="512" viewBox="0 0 512 512" width="512" xmlns="http://www.w3.org/2000/svg"><g><path d="m56 96a24 24 0 1 0 -24-24 24.027 24.027 0 0 0 24 24zm0-32a8 8 0 1 1 -8 8 8.009 8.009 0 0 1 8-8z"/><path d="m136 96a24 24 0 1 0 -24-24 24.027 24.027 0 0 0 24 24zm0-32a8 8 0 1 1 -8 8 8.009 8.009 0 0 1 8-8z"/><path d="m56 160a24 24 0 1 0 -24-24 24.027 24.027 0 0 0 24 24zm0-32a8 8 0 1 1 -8 8 8.009 8.009 0 0 1 8-8z"/><path d="m56 256a24 24 0 1 0 24 24 24.027 24.027 0 0 0 -24-24zm0 32a8 8 0 1 1 8-8 8.009 8.009 0 0 1 -8 8z"/><path d="m136 160a24 24 0 1 0 -24-24 24.027 24.027 0 0 0 24 24zm0-32a8 8 0 1 1 -8 8 8.009 8.009 0 0 1 8-8z"/><path d="m136 192a24 24 0 1 0 24 24 24.027 24.027 0 0 0 -24-24zm0 32a8 8 0 1 1 8-8 8.009 8.009 0 0 1 -8 8z"/><path d="m476 312h-134.71a27.75 27.75 0 0 0 2.71-12v-248a28.031 28.031 0 0 0 -28-28h-120a27.9 27.9 0 0 0 -20 8.43 27.9 27.9 0 0 0 -20-8.43h-120a28.031 28.031 0 0 0 -28 28v248a28.031 28.031 0 0 0 28 28h120a27.9 27.9 0 0 0 20-8.43 27.9 27.9 0 0 0 20 8.43h6.71a27.75 27.75 0 0 0 -2.71 12v120a28.031 28.031 0 0 0 28 28h248a28.031 28.031 0 0 0 28-28v-120a28.031 28.031 0 0 0 -28-28zm-308-12a12.01 12.01 0 0 1 -12 12h-120a12.01 12.01 0 0 1 -12-12v-116h144zm0-132h-144v-116a12.01 12.01 0 0 1 12-12h120a12.01 12.01 0 0 1 12 12zm16-116a12.01 12.01 0 0 1 12-12h120a12.01 12.01 0 0 1 12 12v116h-144zm12 260a12.01 12.01 0 0 1 -12-12v-116h144v116a12.01 12.01 0 0 1 -12 12zm148 160h-116a12.01 12.01 0 0 1 -12-12v-120a12.01 12.01 0 0 1 12-12h116zm144-12a12.01 12.01 0 0 1 -12 12h-116v-144h116a12.01 12.01 0 0 1 12 12z"/><path d="m456 336a24 24 0 1 0 24 24 24.027 24.027 0 0 0 -24-24zm0 32a8 8 0 1 1 8-8 8.009 8.009 0 0 1 -8 8z"/><path d="m456 416a24 24 0 1 0 24 24 24.027 24.027 0 0 0 -24-24zm0 32a8 8 0 1 1 8-8 8.009 8.009 0 0 1 -8 8z"/><path d="m392 336a24 24 0 1 0 24 24 24.027 24.027 0 0 0 -24-24zm0 32a8 8 0 1 1 8-8 8.009 8.009 0 0 1 -8 8z"/><path d="m248 336a24 24 0 1 0 24 24 24.027 24.027 0 0 0 -24-24zm0 32a8 8 0 1 1 8-8 8.009 8.009 0 0 1 -8 8z"/><path d="m392 416a24 24 0 1 0 24 24 24.027 24.027 0 0 0 -24-24zm0 32a8 8 0 1 1 8-8 8.009 8.009 0 0 1 -8 8z"/><path d="m312 416a24 24 0 1 0 24 24 24.027 24.027 0 0 0 -24-24zm0 32a8 8 0 1 1 8-8 8.009 8.009 0 0 1 -8 8z"/><path d="m296 96a24 24 0 1 0 -24-24 24.027 24.027 0 0 0 24 24zm0-32a8 8 0 1 1 -8 8 8.009 8.009 0 0 1 8-8z"/><path d="m216 160a24 24 0 1 0 -24-24 24.027 24.027 0 0 0 24 24zm0-32a8 8 0 1 1 -8 8 8.009 8.009 0 0 1 8-8z"/><path d="m296 248a40 40 0 1 0 -40 40 40.045 40.045 0 0 0 40-40zm-64 0a24 24 0 1 1 24 24 24.028 24.028 0 0 1 -24-24z"/></g></svg>