<svg xmlns="http://www.w3.org/2000/svg" width="512" height="512" viewBox="0 0 512 512">    <path d="M496,216H456V184a8,8,0,0,0-8-8H408v-8a8,8,0,0,0-8-8H352a8,8,0,0,0-8,8v72H168V168a8,8,0,0,0-8-8H112a8,8,0,0,0-8,8v8H64a8,8,0,0,0-8,8v32H16a8,8,0,0,0-8,8v96a8,8,0,0,0,8,8H56v32a8,8,0,0,0,8,8h40v8a8,8,0,0,0,8,8h48a8,8,0,0,0,8-8V304H344v72a8,8,0,0,0,8,8h48a8,8,0,0,0,8-8v-8h40a8,8,0,0,0,8-8V328h40a8,8,0,0,0,8-8V224A8,8,0,0,0,496,216ZM56,312H24V232H56Zm48,40H72V192h32Zm48,16H120V176h32Zm192-80H168V256H344Zm48,80H360V176h32Zm48-16H408V192h32Zm48-40H456V232h32Z"/></svg>