<?xml version="1.0"?>
<svg xmlns="http://www.w3.org/2000/svg" width="512" height="512" viewBox="0 0 512 512"><g><path d="M472,96H368V75.82l10.97-4.39a8,8,0,0,0,0-14.86l-120-48a8.023,8.023,0,0,0-5.94,0l-120,48a8,8,0,0,0,0,14.86L168,85.42V96H40A32.03,32.03,0,0,0,8,128V400a32.03,32.03,0,0,0,32,32H204.9l-10.67,32H168a8,8,0,0,0-8,8v24a8,8,0,0,0,8,8H344a8,8,0,0,0,8-8V472a8,8,0,0,0-8-8H317.77L307.1,432H472a32.03,32.03,0,0,0,32-32V128A32.03,32.03,0,0,0,472,96ZM368,208a8,8,0,1,1-8-8A8.011,8.011,0,0,1,368,208ZM157.54,64,256,24.62,354.46,64,256,103.38ZM352,82.22V96h-8V85.42Zm-24,9.6v78.7c-47.8,17.85-96.2,17.85-144,0V91.82l69.03,27.61a8.023,8.023,0,0,0,5.94,0ZM336,480v8H176v-8ZM211.1,464l10.67-32h68.46l10.67,32ZM488,400a16.021,16.021,0,0,1-16,16H40a16.021,16.021,0,0,1-16-16V384H488Zm0-32H24V128a16.021,16.021,0,0,1,16-16H168v64a8.006,8.006,0,0,0,5.03,7.43c27.53,11.01,55.25,16.51,82.97,16.51s55.44-5.5,82.97-16.51A8.006,8.006,0,0,0,344,176V112h8v72a8.451,8.451,0,0,0,.12,1.34,24,24,0,1,0,15.76,0A8.451,8.451,0,0,0,368,184V112H472a16.021,16.021,0,0,1,16,16Z"/><path d="M96,392H48a8,8,0,0,0,0,16H96a8,8,0,0,0,0-16Z"/><path d="M128,392h-8a8,8,0,0,0,0,16h8a8,8,0,0,0,0-16Z"/><path d="M80,352H240a8,8,0,0,0,8-8V248a8,8,0,0,0-8-8H80a8,8,0,0,0-8,8v96A8,8,0,0,0,80,352Zm8-96H232v80H88Z"/><path d="M80,232h64a8,8,0,0,0,0-16H80a8,8,0,0,0,0,16Z"/><path d="M80,208h24a8,8,0,0,0,0-16H80a8,8,0,0,0,0,16Z"/><path d="M272,256H432a8,8,0,0,0,0-16H272a8,8,0,0,0,0,16Z"/><path d="M272,280H432a8,8,0,0,0,0-16H272a8,8,0,0,0,0,16Z"/><path d="M272,304H399a8,8,0,0,0,0-16H272a8,8,0,0,0,0,16Z"/><path d="M432,288h-8a8,8,0,0,0,0,16h8a8,8,0,0,0,0-16Z"/><path d="M272,328H432a8,8,0,0,0,0-16H272a8,8,0,0,0,0,16Z"/><path d="M272,352H399a8,8,0,0,0,0-16H272a8,8,0,0,0,0,16Z"/><path d="M432,336h-8a8,8,0,0,0,0,16h8a8,8,0,0,0,0-16Z"/></g></svg>
