<?xml version="1.0"?>
<svg xmlns="http://www.w3.org/2000/svg" width="512" height="512" viewBox="0 0 512 512"><g><path d="M472,72H40A32.036,32.036,0,0,0,8,104V408a32.036,32.036,0,0,0,32,32H472a32.036,32.036,0,0,0,32-32V104A32.036,32.036,0,0,0,472,72Zm16,336a16.021,16.021,0,0,1-16,16H40a16.021,16.021,0,0,1-16-16V104A16.021,16.021,0,0,1,40,88H472a16.021,16.021,0,0,1,16,16Z"/><path d="M432,96H40a8,8,0,0,0-8,8V408a8,8,0,0,0,8,8H432a8,8,0,0,0,8-8V104A8,8,0,0,0,432,96Zm-8,304H48V112H424Z"/><path d="M464,232a24,24,0,1,0,24,24A24.027,24.027,0,0,0,464,232Zm0,32a8,8,0,1,1,8-8A8.009,8.009,0,0,1,464,264Z"/><path d="M464,312a8,8,0,0,0,8-8v-8a8,8,0,0,0-16,0v8A8,8,0,0,0,464,312Z"/><path d="M464,200a8,8,0,0,0-8,8v8a8,8,0,0,0,16,0v-8A8,8,0,0,0,464,200Z"/><path d="M184,128H72a8,8,0,0,0-8,8v40a8,8,0,0,0,11.58,7.16L89.89,176H104v88a8,8,0,0,0,8,8h32a8,8,0,0,0,8-8V176h14.11l14.31,7.16A8,8,0,0,0,192,176V136A8,8,0,0,0,184,128Zm-8,35.06-4.42-2.22A8.081,8.081,0,0,0,168,160H144a8,8,0,0,0-8,8v88H120V168a8,8,0,0,0-8-8H88a8.081,8.081,0,0,0-3.58.84L80,163.06V144h96Z"/><path d="M216,144H400a8,8,0,0,0,0-16H216a8,8,0,0,0,0,16Z"/><path d="M216,176H400a8,8,0,0,0,0-16H216a8,8,0,0,0,0,16Z"/><path d="M216,208H368a8,8,0,0,0,0-16H216a8,8,0,0,0,0,16Z"/><path d="M216,240H400a8,8,0,0,0,0-16H216a8,8,0,0,0,0,16Z"/><path d="M216,272h80a8,8,0,0,0,0-16H216a8,8,0,0,0,0,16Z"/><path d="M400,192h-8a8,8,0,0,0,0,16h8a8,8,0,0,0,0-16Z"/><path d="M72,304H256a8,8,0,0,0,0-16H72a8,8,0,0,0,0,16Z"/><path d="M72,336H256a8,8,0,0,0,0-16H72a8,8,0,0,0,0,16Z"/><path d="M72,368H184a8,8,0,0,0,0-16H72a8,8,0,0,0,0,16Z"/><path d="M216,352h-8a8,8,0,0,0,0,16h8a8,8,0,0,0,0-16Z"/><path d="M400,288H288a8,8,0,0,0-8,8v80a8,8,0,0,0,8,8H400a8,8,0,0,0,8-8V296A8,8,0,0,0,400,288Zm-8,80H296V304h96Z"/></g></svg>
