<?xml version="1.0"?>
<svg xmlns="http://www.w3.org/2000/svg" width="512" height="512" viewBox="0 0 512 512"><g><path d="M392,8H168a32.03,32.03,0,0,0-32,32V96H96a8,8,0,0,0-8,8V296a8,8,0,0,0,8,8h40V472a32.03,32.03,0,0,0,32,32H392a32.03,32.03,0,0,0,32-32V40A32.03,32.03,0,0,0,392,8ZM325.44,24l-4.5,16H238.25l-4-16ZM104,288V112H352V288H336a8,8,0,0,0-8,8v20.69l-26.34-26.35A8.008,8.008,0,0,0,296,288ZM408,472a16.021,16.021,0,0,1-16,16H168a16.021,16.021,0,0,1-16-16V304H292.69l37.65,37.66A8,8,0,0,0,344,336V304h16a8,8,0,0,0,8-8V104a8,8,0,0,0-8-8H152V40a16.021,16.021,0,0,1,16-16h49.75l6.49,25.94A8,8,0,0,0,232,56h95a8,8,0,0,0,7.7-5.83L342.06,24H392a16.021,16.021,0,0,1,16,16Z"/><path d="M240,456H176a8,8,0,0,0,0,16h64a8,8,0,0,0,0-16Z"/><path d="M272,456h-8a8,8,0,0,0,0,16h8a8,8,0,0,0,0-16Z"/><path d="M384,360H320a8,8,0,0,0-8,8v48a8,8,0,0,0,8,8h64a8,8,0,0,0,8-8V368A8,8,0,0,0,384,360Zm-8,48H328V376h48Z"/><path d="M296,360H240a8,8,0,0,0,0,16h56a8,8,0,0,0,0-16Z"/><path d="M296,384H264a8,8,0,0,0,0,16h32a8,8,0,0,0,0-16Z"/><path d="M296,408H248a8,8,0,0,0,0,16h48a8,8,0,0,0,0-16Z"/><path d="M288,201.76V191a23.029,23.029,0,0,0-23-23H240V128a8,8,0,0,0-8-8H200a8,8,0,0,0-8,8v24a8,8,0,0,0,8,8h24v8H199a23.029,23.029,0,0,0-23,23v10.38a23.99,23.99,0,0,0,0,45.24V257a23.029,23.029,0,0,0,23,23h66a23.029,23.029,0,0,0,23-23V246.24a23.987,23.987,0,0,0,0-44.48ZM208,144v-8h16v8Zm-16,47a7.008,7.008,0,0,1,7-7h66a7.008,7.008,0,0,1,7,7v9H192Zm80,66a7.008,7.008,0,0,1-7,7H199a7.008,7.008,0,0,1-7-7v-9h80Zm7-25H184a8,8,0,0,1,0-16h95a8,8,0,0,1,0,16Z"/></g></svg>
