<?xml version="1.0"?>
<svg xmlns="http://www.w3.org/2000/svg" width="512" height="512" viewBox="0 0 512 512"><g><path d="M412,416h-4v-4a28.028,28.028,0,0,0-26.9-27.97,32,32,0,1,0-42.2,0A28.028,28.028,0,0,0,312,412v4h-8v-4a28.028,28.028,0,0,0-26.9-27.97,32,32,0,1,0-42.2,0A28.028,28.028,0,0,0,208,412v4h-8v-4a28.028,28.028,0,0,0-26.9-27.97,32,32,0,1,0-42.2,0A28.028,28.028,0,0,0,104,412v4h-4a28.031,28.031,0,0,0-28,28v44a8,8,0,0,0,8,8H432a8,8,0,0,0,8-8V444A28.031,28.031,0,0,0,412,416Zm-52-72a16,16,0,1,1-16,16A16.021,16.021,0,0,1,360,344Zm-32,68a12.01,12.01,0,0,1,12-12h40a12.01,12.01,0,0,1,12,12v4H328Zm-72-68a16,16,0,1,1-16,16A16.021,16.021,0,0,1,256,344Zm-32,68a12.01,12.01,0,0,1,12-12h40a12.01,12.01,0,0,1,12,12v4H224Zm-72-68a16,16,0,1,1-16,16A16.021,16.021,0,0,1,152,344Zm-32,68a12.01,12.01,0,0,1,12-12h40a12.01,12.01,0,0,1,12,12v4H120Zm304,68H88V444a12.01,12.01,0,0,1,12-12H412a12.01,12.01,0,0,1,12,12Z"/><path d="M88.758,311.964a1768.4,1768.4,0,0,1,334.484,0q.379.036.758.036a8,8,0,0,0,8-8V96a8,8,0,0,0-8.758-7.964,1768.4,1768.4,0,0,1-334.484,0A8,8,0,0,0,80,96V304a8,8,0,0,0,8.758,7.964ZM96,104.776a1785.082,1785.082,0,0,0,320,0V295.224c-53.109-4.79-106.555-7.186-160-7.186s-106.891,2.4-160,7.186Z"/><path d="M304,200a8,8,0,0,0-4.422-7.155l-64-32A8,8,0,0,0,224,168v64a8,8,0,0,0,11.578,7.155l64-32A8,8,0,0,0,304,200Zm-64,19.056V180.944L278.111,200Z"/><path d="M56,272a16.019,16.019,0,0,0,16-16V176a16.019,16.019,0,0,0-16-16H24A16.019,16.019,0,0,0,8,176v80a16.019,16.019,0,0,0,16,16h8v32H24a8,8,0,0,0,0,16H56a8,8,0,0,0,0-16H48V272ZM24,176H56l.01,80H24Z"/><circle cx="40" cy="192" r="8"/><circle cx="40" cy="216" r="8"/><circle cx="40" cy="240" r="8"/><path d="M488,160H456a16.019,16.019,0,0,0-16,16v80a16.019,16.019,0,0,0,16,16h8v32h-8a8,8,0,0,0,0,16h32a8,8,0,0,0,0-16h-8V272h8a16.019,16.019,0,0,0,16-16V176A16.019,16.019,0,0,0,488,160Zm0,96H456V176h32l.01,80Z"/><circle cx="472" cy="216" r="8"/><circle cx="472" cy="192" r="8"/><circle cx="472" cy="240" r="8"/><path d="M216,80h80a16.019,16.019,0,0,0,16-16V32a16.019,16.019,0,0,0-16-16H216a16.019,16.019,0,0,0-16,16V64A16.019,16.019,0,0,0,216,80Zm0-48,80-.01V64H216Z"/><circle cx="256" cy="48" r="8"/><circle cx="232" cy="48" r="8"/><circle cx="280" cy="48" r="8"/></g></svg>
