<svg height="512" viewBox="0 0 512 512" width="512" xmlns="http://www.w3.org/2000/svg"><g><path d="m224 136a8 8 0 0 0 -8 8v64a8 8 0 0 0 8 8h64a8 8 0 0 0 8-8v-64a8 8 0 0 0 -8-8zm56 32h-16v-16h16zm-32-16v16h-16v-16zm-16 32h16v16h-16zm32 16v-16h16v16z"/><path d="m496 480h-8a8 8 0 0 0 0 16h8a8 8 0 0 0 0-16z"/><path d="m501.66 258.34-61.66-61.65v-84.69a8 8 0 0 0 8-8v-24a8 8 0 0 0 -8-8h-64a8 8 0 0 0 -8 8v24a8 8 0 0 0 8 8v20.69l-114.34-114.35a8.015 8.015 0 0 0 -11.32 0l-240 240a8.008 8.008 0 0 0 -2.34 5.66v48a8 8 0 0 0 13.66 5.66l34.34-34.35v196.69h-40a8 8 0 0 0 0 16h448a8 8 0 0 0 0-16h-8v-196.69l34.34 34.35a8 8 0 0 0 13.66-5.66v-48a8.008 8.008 0 0 0 -2.34-5.66zm-117.66-170.34h48v8h-48zm40 24v68.69l-32-32v-36.69zm16 368h-368v-212.69l179.82-179.81 4.18-3.82 4.18 3.82 179.82 179.81zm48-187.31-226.34-226.35a8.015 8.015 0 0 0 -11.32 0l-226.34 226.35v-25.38l232-232 232 232z"/><path d="m424 264h-336a8 8 0 0 0 -8 8v184a8 8 0 0 0 8 8h336a8 8 0 0 0 8-8v-184a8 8 0 0 0 -8-8zm-88 184h-160v-24h160zm-144-64v-80h128v80zm120 16v8h-112v-8zm104 48h-32v-48h8a16.021 16.021 0 0 0 16-16v-80a16.021 16.021 0 0 0 -16-16h-32a16.021 16.021 0 0 0 -16 16v80a16.021 16.021 0 0 0 16 16h8v48h-16v-32a8 8 0 0 0 -8-8h-16v-8a8 8 0 0 0 8-8v-96a8 8 0 0 0 -8-8h-144a8 8 0 0 0 -8 8v96a8 8 0 0 0 8 8v8h-16a8 8 0 0 0 -8 8v32h-16v-48h8a16.021 16.021 0 0 0 16-16v-80a16.021 16.021 0 0 0 -16-16h-32a16.021 16.021 0 0 0 -16 16v80a16.021 16.021 0 0 0 16 16h8v48h-32v-168h320zm-56-64v-80h32l.01 80zm-240 0v-80h32l.01 80z"/><path d="m236.059 374.962a8 8 0 0 0 8.057-.1l40-24a8 8 0 0 0 0-13.72l-40-24a8 8 0 0 0 -12.116 6.858v48a8 8 0 0 0 4.059 6.962zm11.941-40.832 16.451 9.87-16.451 9.87z"/><circle cx="136" cy="320" r="8"/><circle cx="136" cy="344" r="8"/><circle cx="136" cy="368" r="8"/><circle cx="376" cy="320" r="8"/><circle cx="376" cy="344" r="8"/><circle cx="376" cy="368" r="8"/></g></svg>