<svg xmlns="http://www.w3.org/2000/svg" width="512" height="512" viewBox="0 0 512 512">    <g>    <path d="M501.66,258.34,440,196.69V112a8,8,0,0,0,8-8V80a8,8,0,0,0-8-8H376a8,8,0,0,0-8,8v24a8,8,0,0,0,8,8v20.69L261.66,18.34a8.015,8.015,0,0,0-11.32,0l-240,240A8.008,8.008,0,0,0,8,264v48a8,8,0,0,0,13.66,5.66L56,283.31V480H16a8,8,0,0,0,0,16H464a8,8,0,0,0,0-16h-8V283.31l34.34,34.35A8,8,0,0,0,504,312V264A8.008,8.008,0,0,0,501.66,258.34ZM384,88h48v8H384Zm40,24v68.69l-32-32V112Zm16,368H72V267.31L251.82,87.5,256,83.68l4.18,3.82L440,267.31Zm48-187.31L261.66,66.34a8.015,8.015,0,0,0-11.32,0L24,292.69V267.31l232-232,232,232Z"/>    <path d="M224,136a8,8,0,0,0-8,8v64a8,8,0,0,0,8,8h64a8,8,0,0,0,8-8V144a8,8,0,0,0-8-8Zm56,32H264V152h16Zm-32-16v16H232V152Zm-16,32h16v16H232Zm32,16V184h16v16Z"/>    <path d="M496,480h-8a8,8,0,0,0,0,16h8a8,8,0,0,0,0-16Z"/>    <path d="M424,264H88a8,8,0,0,0-8,8V456a8,8,0,0,0,8,8H424a8,8,0,0,0,8-8V272A8,8,0,0,0,424,264ZM184,448H120V328h64Zm96,0H232v-8a16.021,16.021,0,0,1,16-16h16a16.021,16.021,0,0,1,16,16Zm-32-56v-7a8,8,0,0,1,16,0v7a8,8,0,0,1-16,0Zm144,56H328V328h64Zm24,0h-8V328a16.021,16.021,0,0,0-16-16H328a16.021,16.021,0,0,0-16,16V448H296v-8a32.05,32.05,0,0,0-23.3-30.79A23.894,23.894,0,0,0,280,392v-7a24,24,0,0,0-48,0v7a23.894,23.894,0,0,0,7.3,17.21A32.05,32.05,0,0,0,216,440v8H200V328a16.021,16.021,0,0,0-16-16H120a16.021,16.021,0,0,0-16,16V448H96V280H416Z"/>    <path d="M152,336a24,24,0,1,0,24,24A24.028,24.028,0,0,0,152,336Zm0,32a8,8,0,1,1,8-8A8.009,8.009,0,0,1,152,368Z"/>    <path d="M152,392a24,24,0,1,0,24,24A24.028,24.028,0,0,0,152,392Zm0,32a8,8,0,1,1,8-8A8.009,8.009,0,0,1,152,424Z"/>    <path d="M360,336a24,24,0,1,0,24,24A24.028,24.028,0,0,0,360,336Zm0,32a8,8,0,1,1,8-8A8.009,8.009,0,0,1,360,368Z"/>    <path d="M360,392a24,24,0,1,0,24,24A24.028,24.028,0,0,0,360,392Zm0,32a8,8,0,1,1,8-8A8.009,8.009,0,0,1,360,424Z"/>  </g></svg>