<?xml version="1.0"?>
<svg xmlns="http://www.w3.org/2000/svg" width="512" height="512" viewBox="0 0 512 512"><g><path d="M496,24H384V16a8,8,0,0,0-8-8H344a8,8,0,0,0-8,8v8H176V16a8,8,0,0,0-8-8H136a8,8,0,0,0-8,8v8H16a8,8,0,0,0,0,16H128V73.75L70.06,88.24a7.984,7.984,0,0,0-5.9,6.19l-32,160a7.989,7.989,0,0,0,5.11,9.09L120,293.6V496a8,8,0,0,0,8,8H384a8,8,0,0,0,8-8V293.6l82.73-30.08a7.989,7.989,0,0,0,5.11-9.09l-32-160a7.984,7.984,0,0,0-5.9-6.19L384,73.75V40H496a8,8,0,0,0,0-16ZM352,24h16V88H352ZM176,40H336V60.64l-22.43-4.48A7.992,7.992,0,0,0,304,64c0,22.06-21.53,40-48,40s-48-17.94-48-40a7.992,7.992,0,0,0-9.57-7.84L176,60.64ZM144,24h16V88H144Zm289.15,78.53,29.66,148.3L392,276.58V191a8,8,0,0,0-16,0V488H136V472H304a8,8,0,0,0,0-16H136V191a8,8,0,0,0-16,0v85.58L49.19,250.83l29.66-148.3L128,90.25V96a8,8,0,0,0,8,8h32a8,8,0,0,0,8-8V76.96l16.94-3.39C198.14,99.91,224.44,120,256,120s57.86-20.09,63.06-46.43L336,76.96V96a8,8,0,0,0,8,8h32a8,8,0,0,0,8-8V90.25Z"/><path d="M360,160H280a8,8,0,0,0-8,8v80a8,8,0,0,0,5.029,7.428l40,16a8,8,0,0,0,5.942,0l40-16A8,8,0,0,0,368,248V168A8,8,0,0,0,360,160Zm-8,16v8H288v-8Zm-32,79.384-32-12.8V200h64v42.584Z"/><path d="M336,456h-8a8,8,0,0,0,0,16h8a8,8,0,0,0,0-16Z"/></g></svg>
