<?xml version="1.0"?>
<svg xmlns="http://www.w3.org/2000/svg" width="512" height="512" viewBox="0 0 512 512"><g><path d="M472,72H376V40a8,8,0,0,0-11.97-6.95L320,58.21V40a8,8,0,0,0-8-8H144a8,8,0,0,0-8,8V72H40A32.036,32.036,0,0,0,8,104V376a32.036,32.036,0,0,0,32,32H204.9l-10.67,32H168a8,8,0,0,0-8,8v24a8,8,0,0,0,8,8H344a8,8,0,0,0,8-8V448a8,8,0,0,0-8-8H317.77L307.1,408H472a32.042,32.042,0,0,0,32-32V104A32.042,32.042,0,0,0,472,72ZM320,76.64l40-22.85V154.21l-40-22.85ZM152,48H304V160H152ZM336,456v8H176v-8ZM211.1,440l10.67-32h68.46l10.67,32ZM488,376a16.021,16.021,0,0,1-16,16H40a16.021,16.021,0,0,1-16-16V360H488Zm0-32H24V104A16.021,16.021,0,0,1,40,88h96v80a8,8,0,0,0,8,8H312a8,8,0,0,0,8-8V149.79l44.03,25.16A8,8,0,0,0,376,168V88h96a16.021,16.021,0,0,1,16,16Z"/><path d="M96,368H48a8,8,0,0,0,0,16H96a8,8,0,0,0,0-16Z"/><path d="M128,368h-8a8,8,0,0,0,0,16h8a8,8,0,0,0,0-16Z"/><path d="M160,312H352a32.036,32.036,0,0,0,32-32V224a32.036,32.036,0,0,0-32-32H160a32.036,32.036,0,0,0-32,32v56A32.036,32.036,0,0,0,160,312Zm-16-88a16.019,16.019,0,0,1,16-16H352a16.019,16.019,0,0,1,16,16v56a16.019,16.019,0,0,1-16,16H160a16.019,16.019,0,0,1-16-16Z"/><path d="M168,288h32a8,8,0,0,0,0-16H176V224a8,8,0,0,0-16,0v56A8,8,0,0,0,168,288Z"/><path d="M224,288a8,8,0,0,0,8-8V224a8,8,0,0,0-16,0v56A8,8,0,0,0,224,288Z"/><path d="M312,288h32a8,8,0,0,0,0-16H320V256h8a8,8,0,0,0,0-16h-8v-8h24a8,8,0,0,0,0-16H312a8,8,0,0,0-8,8v56A8,8,0,0,0,312,288Z"/><path d="M264.308,282.2a8,8,0,0,0,15.384,0l16-56a8,8,0,1,0-15.384-4.4L272,250.88,263.692,221.8a8,8,0,1,0-15.384,4.4Z"/></g></svg>
