<?xml version="1.0"?>
<svg xmlns="http://www.w3.org/2000/svg" width="512" height="512" viewBox="0 0 512 512"><g><path d="M368,152h-8V120a80,80,0,0,0-160,0v32h-8a8,8,0,0,0-8,8v32a8,8,0,0,0,8,8h8.3l6.23,161.84A47.832,47.832,0,0,0,248,407.56V424a15.991,15.991,0,0,0,8,13.83V496a8,8,0,0,0,8,8h32a8,8,0,0,0,8-8V437.83A15.991,15.991,0,0,0,312,424V407.45a47.9,47.9,0,0,0,40.65-45.37L359.66,200H368a8,8,0,0,0,8-8V160A8,8,0,0,0,368,152ZM216,120a64,64,0,0,1,128,0v32H216Zm72,368H272V440h16Zm8-64H264V408h32l.01,16Zm40.66-62.62A31.93,31.93,0,0,1,304.69,392h-50.2a31.912,31.912,0,0,1-31.98-30.77l-.35-9.23H337.07Zm1.1-25.38H221.54l-5.23-136H343.65ZM360,184H200V168H360Z"/><path d="M264,296h32a8,8,0,0,0,8-8V224a8,8,0,0,0-8-8H264a8,8,0,0,0-8,8v64A8,8,0,0,0,264,296Zm8-16V264h16v16Zm16-48v16H272V232Z"/><path d="M481.657,238.343l-28-28A8,8,0,0,0,440,216v57.376A24,24,0,1,0,456,296V235.313l14.343,14.344a8,8,0,1,0,11.314-11.314ZM432,304a8,8,0,1,1,8-8A8.009,8.009,0,0,1,432,304Z"/><path d="M133.657,266.343A8,8,0,0,0,120,272v57.376A24,24,0,1,0,136,352V291.313l14.343,14.344a8,8,0,1,0,11.314-11.314ZM112,360a8,8,0,1,1,8-8A8.009,8.009,0,0,1,112,360Z"/><path d="M128,51.543V81.376A24.018,24.018,0,1,0,143.449,98.9,7.97,7.97,0,0,0,144,96V16a8,8,0,0,0-10.809-7.49l-64,24A8,8,0,0,0,64,40v73.376A24,24,0,1,0,80,136V69.543ZM120,112a8,8,0,1,1,8-8A8.009,8.009,0,0,1,120,112Zm8-84.456v6.913l-48,18V45.544ZM56,144a8,8,0,1,1,8-8A8.009,8.009,0,0,1,56,144Z"/></g></svg>
