<?xml version="1.0"?>
<svg xmlns="http://www.w3.org/2000/svg" width="512" height="512" viewBox="0 0 512 512"><g><path d="M120,384H88a8,8,0,0,0,0,16h32a8,8,0,0,0,0-16Z"/><path d="M152,384h-8a8,8,0,0,0,0,16h8a8,8,0,0,0,0-16Z"/><path d="M107.794,318.806a8,8,0,0,0,7.784.349l64-32a8,8,0,0,0,0-14.31l-64-32A8,8,0,0,0,104,248v64A8,8,0,0,0,107.794,318.806ZM120,260.944,158.111,280,120,299.056Z"/><path d="M432,104H408a8,8,0,0,0-8-8H376a8,8,0,0,0-8,8v80a8,8,0,0,0,8,8h24a8,8,0,0,0,8-8v64a8,8,0,0,0,8,8h8v32a32.042,32.042,0,0,1-32,32H352a32.042,32.042,0,0,1-32-32V168h8a8,8,0,0,0,8-8V40a24.032,24.032,0,0,0-24-24H288a8,8,0,0,0-8-8H256a8,8,0,0,0-8,8V96a8,8,0,0,0,8,8h24a8,8,0,0,0,8-8v64a8,8,0,0,0,8,8h8V288a48.051,48.051,0,0,0,48,48h8V456a32.042,32.042,0,0,1-32,32H184a32.042,32.042,0,0,1-32-32v-8h8a8,8,0,0,0,8-8V424h40a24.032,24.032,0,0,0,24-24V160a24.032,24.032,0,0,0-24-24H80a24.032,24.032,0,0,0-24,24V400a24.032,24.032,0,0,0,24,24h40v16a8,8,0,0,0,8,8h8v8a48.051,48.051,0,0,0,48,48H328a48.051,48.051,0,0,0,48-48V336h16a48.051,48.051,0,0,0,48-48V256h8a8,8,0,0,0,8-8V128A24.032,24.032,0,0,0,432,104Zm-40,72h-8V112h8ZM272,88h-8V24h8Zm24-8h-8V32h24a8.011,8.011,0,0,1,8,8v88H304V88A8,8,0,0,0,296,80Zm8,72v-8h16v8Zm-139.1,0-2.67,8H125.77l-2.67-8ZM80,408a8.011,8.011,0,0,1-8-8V160a8.011,8.011,0,0,1,8-8h26.23l6.18,18.53A8,8,0,0,0,120,176h48a8,8,0,0,0,7.59-5.47L181.77,152H208a8.011,8.011,0,0,1,8,8V400a8.011,8.011,0,0,1-8,8Zm56,24v-8h16v8ZM440,240H424v-8h16Zm0-24H424V176a8,8,0,0,0-8-8h-8V120h24a8.011,8.011,0,0,1,8,8Z"/></g></svg>
