<?xml version="1.0"?>
<svg xmlns="http://www.w3.org/2000/svg" width="512" height="512" viewBox="0 0 512 512"><g><path d="M416,240H400V40A32.036,32.036,0,0,0,368,8H144a32.036,32.036,0,0,0-32,32V240H96a32.036,32.036,0,0,0-32,32V448a32.036,32.036,0,0,0,32,32h17.01A32.058,32.058,0,0,0,144,504H368a32.058,32.058,0,0,0,30.99-24H416a32.036,32.036,0,0,0,32-32V272A32.036,32.036,0,0,0,416,240ZM301.44,24l-4.5,16H214.25l-4-16ZM128,40a16.021,16.021,0,0,1,16-16h49.75l6.49,25.94A8,8,0,0,0,208,56h95a8,8,0,0,0,7.7-5.83L318.06,24H368a16.021,16.021,0,0,1,16,16V240H128ZM368,488H144a15.991,15.991,0,0,1-13.83-8H381.83A15.991,15.991,0,0,1,368,488Zm64-40a16.021,16.021,0,0,1-16,16H96a16.021,16.021,0,0,1-16-16V344H432Zm0-120H80V296H432Zm0-48H80v-8a16.021,16.021,0,0,1,16-16H416a16.021,16.021,0,0,1,16,16Z"/><path d="M184,352H104a8,8,0,0,0-8,8v32a8,8,0,0,0,8,8h80a8,8,0,0,0,8-8V360A8,8,0,0,0,184,352Zm-8,32H112V368h64Z"/><path d="M408,408H336a8,8,0,0,0,0,16h72a8,8,0,0,0,0-16Z"/><path d="M408,432H392a8,8,0,0,0,0,16h16a8,8,0,0,0,0-16Z"/><path d="M344,128a8,8,0,0,0,8-8V96a8.006,8.006,0,0,0-5.9-7.72l-88-24a8.085,8.085,0,0,0-4.2,0l-88,24A8.006,8.006,0,0,0,160,96v24a8,8,0,0,0,8,8h8v64h-8a8,8,0,0,0-8,8v24a8,8,0,0,0,8,8H344a8,8,0,0,0,8-8V200a8,8,0,0,0-8-8h-8V128Zm-8,88H176v-8H336ZM192,192V128h16v64Zm32,0V128h8v64Zm24,0V128h16v64Zm32,0V128h8v64Zm24,0V128h16v64ZM176,112v-9.89l80-21.82,80,21.82V112Z"/></g></svg>
