<svg id="Capa_1" enable-background="new 0 0 512 512" height="512" viewBox="0 0 512 512" width="512" xmlns="http://www.w3.org/2000/svg"><g><path d="m461.31 145.83-61.31-76.64v-29.19c-.017-17.666-14.334-31.983-32-32h-224c-17.666.017-31.983 14.334-32 32v29.19s-62.268 77.845-62.28 77.86c-1.114 1.41-1.72 3.154-1.72 4.95v48c.022 22.082 17.918 39.978 40 40h16c2.687-.001 5.366-.269 8-.8v232.8c.017 17.666 14.334 31.983 32 32h224c17.666-.017 31.983-14.334 32-32v-232.8c2.634.531 5.313.799 8 .8h16c22.091 0 40-17.909 40-40v-48.55c.104-2.206-.907-4.317-2.69-5.62zm-21.96-1.83h-58.41l-32-64h39.21zm-135.35 16h64v40c-.018 13.248-10.752 23.982-24 24h-16c-13.248-.018-23.982-10.752-24-24zm-1.44-16-12.8-64h41.3l32 64zm-1.12-120-4.5 16h-82.69l-4-16zm-173.44 16c.012-8.832 7.168-15.988 16-16h49.75l6.49 25.94c.89 3.561 4.089 6.059 7.76 6.06h95c3.583 0 6.728-2.382 7.7-5.83l7.36-26.17h49.94c8.832.012 15.988 7.168 16 16v24h-256zm160 120v40c-.018 13.248-10.752 23.982-24 24h-16c-13.248-.018-23.982-10.752-24-24v-40zm-62.24-16 12.8-64h34.88l12.8 64zm-76.82 0 32-64h41.3l-12.8 64zm59.06 16v40c-.018 13.248-10.752 23.982-24 24h-16c-13.248-.018-23.982-10.752-24-24v-40zm-84.15-80h39.21l-32 64h-58.41zm-19.85 144h-16c-13.248-.018-23.982-10.752-24-24v-40h64v40c-.018 13.248-10.752 23.982-24 24zm280 248c-.012 8.832-7.168 15.988-16 16h-224c-8.832-.012-15.988-7.168-16-16v-240.02c3.029-2.282 5.722-4.978 8-8.01 7.542 10.09 19.402 16.031 32 16.03h16c12.598.001 24.458-5.94 32-16.03 7.542 10.09 19.402 16.031 32 16.03h16c12.598.001 24.458-5.94 32-16.03 7.542 10.09 19.402 16.031 32 16.03h16c12.589-.006 24.44-5.937 31.99-16.01 2.282 3.032 4.978 5.728 8.01 8.01zm64-272c-.018 13.248-10.752 23.982-24 24h-16c-13.248-.018-23.982-10.752-24-24v-40h64z"/><path d="m216 455h-64c-4.418 0-8 3.582-8 8s3.582 8 8 8h64c4.418 0 8-3.582 8-8s-3.582-8-8-8z"/><path d="m248 455h-8c-4.418 0-8 3.582-8 8s3.582 8 8 8h8c4.418 0 8-3.582 8-8s-3.582-8-8-8z"/><g><path d="m304 376c4.036.001 7.441-3.005 7.94-7.01l8-64c.547-4.384-2.564-8.382-6.949-8.928-.328-.042-.66-.062-.991-.062h-96v-16c0-4.418-3.582-8-8-8h-24c-4.418 0-8 3.582-8 8s3.582 8 8 8h16v104c0 4.418 3.582 8 8 8h96c4.418 0 8-3.582 8-8s-3.582-8-8-8h-88v-8zm-88-64h86.94l-6 48h-80.94z"/><circle cx="224" cy="416" r="8"/><circle cx="288" cy="416" r="8"/></g></g></svg>