<?xml version="1.0"?>
<svg xmlns="http://www.w3.org/2000/svg" width="512" height="512" viewBox="0 0 512 512"><path d="M400,456h-8V432a8,8,0,0,0-8-8h-8V216a8,8,0,0,0-8-8H352v-8a8,8,0,0,0-8-8H280a55.9,55.9,0,0,1,20.66-43.4,49.35,49.35,0,0,0,5.4,6.34c7.95,7.95,17.18,12.4,26.71,12.88.57.03,1.13.04,1.69.04,9.99,0,19.69-4.44,28.17-12.92,17.8-17.8,14.09-58.48,13.61-63.06a8,8,0,0,0-7.12-7.12c-4.58-.48-45.26-4.19-63.06,13.61-8.96,8.96-13.41,19.28-12.88,29.86a34.23,34.23,0,0,0,.71,5.42A71.932,71.932,0,0,0,264,192V103.38c19.69-3.1,32-17.87,32-39.38,0-25.18-31.39-51.32-34.97-54.22a8.006,8.006,0,0,0-10.06,0C247.39,12.68,216,38.82,216,64c0,21.51,12.31,36.28,32,39.38V192h-8a63.84,63.84,0,0,0-20.74-47.12,36.424,36.424,0,0,0,.56-4.65c.53-10.58-3.92-20.9-12.88-29.86-17.81-17.8-58.48-14.09-63.06-13.61a8,8,0,0,0-7.12,7.12c-.48,4.58-4.19,45.26,13.61,63.06,8.48,8.48,18.18,12.92,28.17,12.92.56,0,1.13-.01,1.69-.04,9.53-.48,18.76-4.93,26.71-12.88a51.721,51.721,0,0,0,5.37-6.28A47.793,47.793,0,0,1,224,192H200a8,8,0,0,0-8,8v32a8,8,0,0,0,8,8h8v26.03a7.888,7.888,0,0,1-3.25,6.43A88.316,88.316,0,0,0,168,343.5c-.27,47.66,38.26,87.35,85.87,88.48.72.01,1.44.02,2.15.02A88,88,0,0,0,344,344a88.263,88.263,0,0,0-36.68-71.49,7.975,7.975,0,0,1-3.32-6.47V240h40a8,8,0,0,0,8-8v-8h8V424h-8a8,8,0,0,0-8,8v24H136a8,8,0,0,0-8,8v32a8,8,0,0,0,8,8H400a8,8,0,0,0,8-8V464A8,8,0,0,0,400,456ZM317.37,109.69c7.73-7.74,25.97-9.51,38.92-9.51,1.58,0,3.08.03,4.47.07.43,12.8-.74,34.67-9.45,43.38-5.75,5.75-11.72,8.5-17.74,8.21-6.95-.35-12.64-4.66-16.2-8.21a39.9,39.9,0,0,1-2.93-3.31A55.687,55.687,0,0,1,336,136a8,8,0,0,0,0-16,71.6,71.6,0,0,0-26.81,5.2C309.59,119.93,312.33,114.73,317.37,109.69ZM176,144a47.623,47.623,0,0,1,23.93,6.42,35.632,35.632,0,0,1-4.3,5.21c-3.56,3.55-9.25,7.86-16.2,8.21-6.02.31-11.99-2.46-17.74-8.21-8.68-8.68-9.86-30.58-9.44-43.39,12.8-.43,34.67.74,43.38,9.45,4.06,4.06,6.62,8.22,7.67,12.44A63.659,63.659,0,0,0,176,128a8,8,0,0,0,0,16Zm56-80c0-12.27,14.66-28.59,24.01-37.35C265.36,35.4,280,51.69,280,64c0,15.36-8.13,21.1-16,23.07V56a8,8,0,0,0-16,0V87.07C240.13,85.1,232,79.36,232,64ZM214.08,285.46A23.935,23.935,0,0,0,224,266.03V240h24v79.68c-11.07-.92-17.51-3.77-24.75-6.99-7.14-3.17-15.04-6.67-27.49-8.06A72.082,72.082,0,0,1,214.08,285.46Zm109.8,34.63A71.972,71.972,0,0,1,256.01,416c-.58,0-1.17-.01-1.76-.02-38.95-.92-70.47-33.4-70.25-72.4a71.818,71.818,0,0,1,4.12-23.49c13.52.52,20.59,3.65,28.63,7.22,7.83,3.48,16.58,7.35,31.25,8.4V352a8,8,0,0,0,16,0V335.71c14.67-1.05,23.42-4.92,31.25-8.4C303.29,323.74,310.36,320.61,323.88,320.09Zm-7.64-15.46c-12.45,1.39-20.35,4.89-27.49,8.06-7.24,3.22-13.68,6.07-24.75,6.99V240h24v26.04a24.022,24.022,0,0,0,9.98,19.46A72.006,72.006,0,0,1,316.24,304.63ZM304,224H208V208h96Zm32,0H320V208h16Zm24,216h16v16H360Zm32,48H144V472H392Z"/></svg>
