<?xml version="1.0"?>
<svg xmlns="http://www.w3.org/2000/svg" width="512" height="512" viewBox="0 0 512 512"><g><path d="M432,376H402.75l-25.61-30.73c-.15-.18-.3-.34-.45-.52C397.47,328.76,408,312.39,408,296V184a8,8,0,0,0-8-8H360V136a8,8,0,0,0,8-8V16a8,8,0,0,0-8-8H312a8,8,0,0,0-8,8V128a8,8,0,0,0,8,8v40H272a8,8,0,0,0-8,8V288.15c-2.64-.09-5.31-.15-8-.15a193.458,193.458,0,0,0-48,5.64V255.38c19.69-3.1,32-17.87,32-39.38,0-25.18-31.39-51.32-34.97-54.22a8.006,8.006,0,0,0-10.06,0C191.39,164.68,160,190.82,160,216c0,21.51,12.31,36.28,32,39.38v43.58c-.48.2-.96.39-1.43.6-16.09,7.03-26.28,16.94-29.48,28.44H160a63.84,63.84,0,0,0-20.74-47.12,36.424,36.424,0,0,0,.56-4.65c.53-10.58-3.92-20.9-12.88-29.86-17.8-17.8-58.48-14.09-63.06-13.61a8,8,0,0,0-7.12,7.12c-.48,4.58-4.19,45.26,13.61,63.06,8.48,8.48,18.18,12.92,28.17,12.92.56,0,1.13-.01,1.69-.04,9.53-.48,18.76-4.93,26.71-12.88a51.721,51.721,0,0,0,5.37-6.28A47.793,47.793,0,0,1,144,328a7.852,7.852,0,0,0,.1,1.19,47.827,47.827,0,0,0-26.24,16.08L92.25,376H80a24,24,0,0,0,0,48h1.44l14.72,73.57A7.99,7.99,0,0,0,104,504H408a7.99,7.99,0,0,0,7.84-6.43L430.56,424H432a24,24,0,0,0,0-48ZM96,280a47.623,47.623,0,0,1,23.93,6.42,35.632,35.632,0,0,1-4.3,5.21c-3.56,3.55-9.25,7.86-16.2,8.21-6.02.31-11.99-2.46-17.74-8.21-8.68-8.68-9.86-30.58-9.44-43.39,12.8-.42,34.67.74,43.38,9.45,4.06,4.06,6.62,8.22,7.67,12.44A63.659,63.659,0,0,0,96,264a8,8,0,0,0,0,16ZM320,24h32v96H320Zm24,112v88a7.989,7.989,0,0,1-8,8,8.011,8.011,0,0,1-8-8V136Zm-64,56h32v32a24,24,0,1,0,48,0V192h32V296c0,11.52-9.9,24.99-27.99,38.26a47.677,47.677,0,0,0-12.78-5c-2.79-12.03-13.13-22.41-29.8-29.7-11.45-5.01-25.69-8.49-41.43-10.25ZM176,216c0-12.27,14.66-28.59,24.01-37.35C209.36,187.4,224,203.69,224,216c0,15.36-8.13,21.1-16,23.07V208a8,8,0,0,0-16,0v31.07C184.13,237.1,176,231.36,176,216ZM130.16,355.51A31.9,31.9,0,0,1,154.73,344H168a8,8,0,0,0,8-8c0-7.36,5.92-14.07,16-19.42V344h-8a8,8,0,0,0,0,16h32a8,8,0,0,0,0-16h-8V310.23c13.29-3.93,29.85-6.23,48-6.23,44.86,0,80,14.06,80,32v.18a8.014,8.014,0,0,0,7.26,7.97,31.723,31.723,0,0,1,21.58,11.36L381.92,376H113.08ZM401.44,488H110.56l-12.8-64H414.24ZM432,408H80a8,8,0,0,1,0-16H432a8,8,0,0,1,0,16Z"/><path d="M120,448h80a8,8,0,0,0,0-16H120a8,8,0,0,0,0,16Z"/><path d="M224,448h8a8,8,0,0,0,0-16h-8a8,8,0,0,0,0,16Z"/></g></svg>
