<?xml version="1.0"?>
<svg xmlns="http://www.w3.org/2000/svg" width="512" height="512" viewBox="0 0 512 512"><g><path d="M464.39,415.5,416,234.92V48a8,8,0,0,0-8-8H363.77l-7.05-26.32a8,8,0,0,0-9.8-5.66L227.58,40H104a8,8,0,0,0-8,8V75.25L53.27,86.7a8.007,8.007,0,0,0-5.66,9.8L96,277.08V464a8,8,0,0,0,8,8h44.23l7.05,26.32a8,8,0,0,0,7.73,5.93,8.113,8.113,0,0,0,2.07-.27L284.42,472H408a8,8,0,0,0,8-8V436.75l42.73-11.45A8.007,8.007,0,0,0,464.39,415.5ZM96,215.26,65.14,100.09,96,91.82ZM343.33,25.55,347.2,40H289.4ZM168.67,486.45,164.8,472h57.8ZM400,456H112V56H400Zm16-35.82V296.74l30.86,115.17Z"/><path d="M159.49,69.191a8,8,0,0,0-14.98,0l-24,64a8,8,0,1,0,14.98,5.618L139.544,128h24.912l4.054,10.809a8,8,0,1,0,14.98-5.618ZM145.544,112,152,94.784,158.456,112Z"/><path d="M352.51,442.809a8,8,0,0,0,14.98,0l24-64a8,8,0,1,0-14.98-5.618L372.456,384H347.544l-4.054-10.809a8,8,0,1,0-14.98,5.618ZM366.456,400,360,417.216,353.544,400Z"/><path d="M280,192c-9.67,0-17.37,7.2-23.56,12.98l-.44.41-.44-.41C249.37,199.2,241.67,192,232,192a48,48,0,0,0-38.4,76.8,9.458,9.458,0,0,0,.77.89l55.97,55.97a8.015,8.015,0,0,0,11.32,0l55.97-55.97a9.458,9.458,0,0,0,.77-.89A48,48,0,0,0,280,192Zm25.92,66.77L256,308.69l-49.92-49.92A32,32,0,0,1,232,208c3.35,0,8.72,5.01,12.63,8.67a82.7,82.7,0,0,0,6.57,5.73,8.01,8.01,0,0,0,9.6,0,82.7,82.7,0,0,0,6.57-5.73c3.91-3.66,9.28-8.67,12.63-8.67a32,32,0,0,1,25.92,50.77Z"/></g></svg>
