<?xml version="1.0"?>
<svg xmlns="http://www.w3.org/2000/svg" width="512" height="512" viewBox="0 0 512 512"><g><path d="M496,248H264V191.43a56.005,56.005,0,0,0,0-110.86V16a8,8,0,0,0-8-8H56A48.051,48.051,0,0,0,8,56V456a48.051,48.051,0,0,0,48,48H456a48.051,48.051,0,0,0,48-48V256A8,8,0,0,0,496,248ZM24,56A32.036,32.036,0,0,1,56,24H248V88a8,8,0,0,0,8,8,40,40,0,0,1,0,80,8,8,0,0,0-8,8v64H191.42a55.994,55.994,0,0,0-110.84,0H24ZM248,488H56a32.036,32.036,0,0,1-32-32V264H88a8,8,0,0,0,8-8,40,40,0,0,1,80,0,8,8,0,0,0,8,8h64v56.57a56.005,56.005,0,0,0,0,110.86Zm240-32a32.042,32.042,0,0,1-32,32H264V424a8,8,0,0,0-8-8,40,40,0,0,1,0-80,8,8,0,0,0,8-8V264H488Z"/><path d="M368,296h56a8,8,0,0,0,0-16H368a8,8,0,0,0,0,16Z"/><path d="M456,296h8a8,8,0,0,0,0-16h-8a8,8,0,0,0,0,16Z"/></g></svg>
