<svg height="512" viewBox="0 0 512 512" width="512" xmlns="http://www.w3.org/2000/svg"><g><path d="m496 160h-136v-16a8 8 0 0 0 -8-8h-8v-36a28.031 28.031 0 0 0 -28-28h-120a28.031 28.031 0 0 0 -28 28v36h-8a8 8 0 0 0 -8 8v16h-136a8 8 0 0 0 -8 8v272a8 8 0 0 0 8 8h480a8 8 0 0 0 8-8v-272a8 8 0 0 0 -8-8zm-336 272h-136v-256h136zm24-332a12.01 12.01 0 0 1 12-12h120a12.01 12.01 0 0 1 12 12v36h-8v-32a8 8 0 0 0 -8-8h-112a8 8 0 0 0 -8 8v32h-8zm32 36h-8v-24h96v24h-8a8 8 0 0 0 -8 8v16h-64v-16a8 8 0 0 0 -8-8zm-48 16h40v8h-40zm168 280h-160v-96h160zm0-112h-160v-144h160zm8-160h-40v-8h40zm144 272h-136v-256h136z"/><path d="m88 296a56 56 0 1 0 -56-56 56.063 56.063 0 0 0 56 56zm0-96a40 40 0 1 1 -40 40 40.045 40.045 0 0 1 40-40z"/><path d="m88 272a32 32 0 1 0 -32-32 32.036 32.036 0 0 0 32 32zm0-48a16 16 0 1 1 -16 16 16.019 16.019 0 0 1 16-16z"/><path d="m88 312a56 56 0 1 0 56 56 56.063 56.063 0 0 0 -56-56zm0 96a40 40 0 1 1 40-40 40.045 40.045 0 0 1 -40 40z"/><path d="m88 336a32 32 0 1 0 32 32 32.036 32.036 0 0 0 -32-32zm0 48a16 16 0 1 1 16-16 16.019 16.019 0 0 1 -16 16z"/><circle cx="40" cy="416" r="8"/><circle cx="40" cy="192" r="8"/><circle cx="144" cy="416" r="8"/><circle cx="144" cy="192" r="8"/><path d="m416 296a56 56 0 1 0 -56-56 56.063 56.063 0 0 0 56 56zm0-96a40 40 0 1 1 -40 40 40.045 40.045 0 0 1 40-40z"/><path d="m416 272a32 32 0 1 0 -32-32 32.036 32.036 0 0 0 32 32zm0-48a16 16 0 1 1 -16 16 16.019 16.019 0 0 1 16-16z"/><path d="m416 424a56 56 0 1 0 -56-56 56.063 56.063 0 0 0 56 56zm0-96a40 40 0 1 1 -40 40 40.045 40.045 0 0 1 40-40z"/><path d="m416 400a32 32 0 1 0 -32-32 32.036 32.036 0 0 0 32 32zm0-48a16 16 0 1 1 -16 16 16.019 16.019 0 0 1 16-16z"/><circle cx="368" cy="416" r="8"/><circle cx="368" cy="192" r="8"/><circle cx="472" cy="416" r="8"/><circle cx="472" cy="192" r="8"/><path d="m192 184a8 8 0 0 0 -8 8v40a8 8 0 0 0 8 8h128a8 8 0 0 0 8-8v-40a8 8 0 0 0 -8-8zm120 40h-112v-24h16v16a8 8 0 0 0 16 0v-16h16v8a8 8 0 0 0 16 0v-8h16v16a8 8 0 0 0 16 0v-16h16z"/><path d="m320 344h-128a8 8 0 0 0 -8 8v64a8 8 0 0 0 8 8h128a8 8 0 0 0 8-8v-64a8 8 0 0 0 -8-8zm-41.615 16a48.3 48.3 0 0 0 0 48h-44.77a48.3 48.3 0 0 0 0-48zm-78.385 0h13.15a31.969 31.969 0 0 1 0 48h-13.15zm112 48h-13.15a31.969 31.969 0 0 1 0-48h13.15z"/><path d="m264 256a24 24 0 1 0 24 24 24.028 24.028 0 0 0 -24-24zm0 32a8 8 0 1 1 8-8 8.009 8.009 0 0 1 -8 8z"/><path d="m208 256a24 24 0 1 0 24 24 24.028 24.028 0 0 0 -24-24zm0 32a8 8 0 1 1 8-8 8.009 8.009 0 0 1 -8 8z"/><path d="m320 256h-16a8 8 0 0 0 0 16h16a8 8 0 0 0 0-16z"/><path d="m320 288h-16a8 8 0 0 0 0 16h16a8 8 0 0 0 0-16z"/></g></svg>