<svg xmlns="http://www.w3.org/2000/svg" width="512" height="512" viewBox="0 0 512 512">    <g>    <path d="M224,136a8,8,0,0,0-8,8v64a8,8,0,0,0,8,8h64a8,8,0,0,0,8-8V144a8,8,0,0,0-8-8Zm56,32H264V152h16Zm-32-16v16H232V152Zm-16,32h16v16H232Zm32,16V184h16v16Z"/>    <path d="M496,480h-8a8,8,0,0,0,0,16h8a8,8,0,0,0,0-16Z"/>    <path d="M501.66,258.34,440,196.69V112a8,8,0,0,0,8-8V80a8,8,0,0,0-8-8H376a8,8,0,0,0-8,8v24a8,8,0,0,0,8,8v20.69L261.66,18.34a8.015,8.015,0,0,0-11.32,0l-240,240A8.008,8.008,0,0,0,8,264v48a8,8,0,0,0,13.66,5.66L56,283.31V480H16a8,8,0,0,0,0,16H464a8,8,0,0,0,0-16h-8V283.31l34.34,34.35A8,8,0,0,0,504,312V264A8.008,8.008,0,0,0,501.66,258.34ZM384,88h48v8H384Zm40,24v68.69l-32-32V112Zm16,368H72V267.31L251.82,87.5,256,83.68l4.18,3.82L440,267.31Zm48-187.31L261.66,66.34a8.015,8.015,0,0,0-11.32,0L24,292.69V267.31l232-232,232,232Z"/>    <path d="M424,264H88a8,8,0,0,0-8,8V448a8,8,0,0,0,8,8H424a8,8,0,0,0,8-8V272A8,8,0,0,0,424,264Zm-8,176H96v-8H416ZM264,339.23a79.964,79.964,0,0,0-8,3.65,79.964,79.964,0,0,0-8-3.65V328a8,8,0,0,1,16,0Zm32,17.51v30.49c-11.21-4.33-20.79-4.33-32,0V356.76C276.32,350.4,283.68,350.38,296,356.74Zm-43.97,50.21a8.03,8.03,0,0,0,7.94,0A64.373,64.373,0,0,1,272,401.33V416H240V401.33A64.373,64.373,0,0,1,252.03,406.95ZM248,387.25a40.894,40.894,0,0,0-32-.02V356.74c12.32-6.36,19.68-6.34,32,.02ZM336,416V384h8v32Zm24,0V384h8v32Zm24,0V384h8v32Zm32,0h-8V376a8,8,0,0,0-8-8H328a8,8,0,0,0-8,8v40H288V401.33a64.373,64.373,0,0,1,12.03,5.62A8,8,0,0,0,312,400V352a8.019,8.019,0,0,0-4.03-6.95c-10.59-6.05-19.28-9.07-27.97-9.07V328a24,24,0,0,0-48,0v7.98c-8.69,0-17.38,3.02-27.97,9.07A8.019,8.019,0,0,0,200,352v48a8,8,0,0,0,11.97,6.95A64.373,64.373,0,0,1,224,401.33V416H157.99a8.012,8.012,0,0,0-1.14-4.14l-25.92-42.9,21.43-23.65L164,356.94a8,8,0,0,0,11.31,0l22.63-22.63a8,8,0,0,0,0-11.31l-22.63-22.63a23.991,23.991,0,0,0-34.26,33.59l-25.98,28.67a8.017,8.017,0,0,0-.92,9.51L140.65,416H96V280H416ZM152.69,311.69a8,8,0,0,1,11.31,0l16.97,16.97-11.31,11.31L152.69,323A8,8,0,0,1,152.69,311.69Z"/>  </g></svg>