<svg xmlns="http://www.w3.org/2000/svg" width="512" height="512" viewBox="0 0 512 512">    <g>    <path d="M496,480h-8a8,8,0,0,0,0,16h8a8,8,0,0,0,0-16Z"/>    <path d="M501.66,258.34,440,196.69V112a8,8,0,0,0,8-8V80a8,8,0,0,0-8-8H376a8,8,0,0,0-8,8v24a8,8,0,0,0,8,8v20.69L261.66,18.34a8.015,8.015,0,0,0-11.32,0L197.4,71.28A95.965,95.965,0,1,0,63.28,205.4L10.34,258.34A8.008,8.008,0,0,0,8,264v48a8,8,0,0,0,13.66,5.66L56,283.31V480H16a8,8,0,0,0,0,16H464a8,8,0,0,0,0-16h-8V283.31l34.34,34.35A8,8,0,0,0,504,312V264A8.008,8.008,0,0,0,501.66,258.34ZM384,88h48v8H384Zm40,24v68.69l-32-32V112ZM40,128a80,80,0,1,1,80,80A80.093,80.093,0,0,1,40,128ZM24,292.69V267.31l53.33-53.33a95.5,95.5,0,0,0,18.45,6.92ZM296,480H216V336h80Zm144,0H312V328a8,8,0,0,0-8-8H208a8,8,0,0,0-8,8V480H72V267.31l43.43-43.42c1.51.07,3.04.11,4.57.11a96.115,96.115,0,0,0,96-96c0-1.53-.04-3.06-.11-4.57L251.82,87.5,256,83.68l4.18,3.82L440,267.31Zm48-187.31L261.66,66.34a8.015,8.015,0,0,0-11.32,0L212.9,103.78a95.5,95.5,0,0,0-6.92-18.45L256,35.31l232,232Z"/>    <path d="M224,200a8,8,0,0,0-8,8v64a8,8,0,0,0,8,8h64a8,8,0,0,0,8-8V208a8,8,0,0,0-8-8Zm56,32H264V216h16Zm-32-16v16H232V216Zm-16,32h16v16H232Zm32,16V248h16v16Z"/>    <path d="M280,392a8,8,0,0,0-8,8v32a8,8,0,0,0,16,0V400A8,8,0,0,0,280,392Z"/>    <path d="M416,400V328a8,8,0,0,0-8-8H344a8,8,0,0,0-8,8v72a8,8,0,0,0-8,8v24a8,8,0,0,0,8,8h80a8,8,0,0,0,8-8V408A8,8,0,0,0,416,400Zm-64-64h48v64H352Zm56,88H344v-8h64Z"/>    <path d="M176,400V328a8,8,0,0,0-8-8H104a8,8,0,0,0-8,8v72a8,8,0,0,0-8,8v24a8,8,0,0,0,8,8h80a8,8,0,0,0,8-8V408A8,8,0,0,0,176,400Zm-64-64h48v64H112Zm56,88H104v-8h64Z"/>    <path d="M83.562,150.656l24,16a8,8,0,0,0,9.644-.582l56-48a8,8,0,0,0-10.412-12.148l-51.4,44.055L92.438,137.344a8,8,0,1,0-8.876,13.312Z"/>  </g></svg>