<svg id="Capa_1" enable-background="new 0 0 512 512" height="512" viewBox="0 0 512 512" width="512" xmlns="http://www.w3.org/2000/svg"><g><path d="m496 344h-32v-216c-.022-22.082-17.918-39.978-40-40h-336c-22.082.022-39.978 17.918-40 40v216h-32c-4.418 0-8 3.582-8 8v32c.022 22.082 17.918 39.978 40 40h416c22.082-.022 39.978-17.918 40-40v-32c0-4.418-3.582-8-8-8zm-432-216c.018-13.248 10.752-23.982 24-24h336c13.248.018 23.982 10.752 24 24v216h-384zm229.75 232-4 16h-67.5l-4-16zm194.25 24c-.018 13.248-10.752 23.982-24 24h-416c-13.248-.018-23.982-10.752-24-24v-24h177.75l6.49 25.94c.89 3.561 4.089 6.059 7.76 6.06h80c3.671-.001 6.87-2.499 7.76-6.06l6.49-25.94h177.75z"/><path d="m432 112h-352c-4.418 0-8 3.582-8 8v208c0 4.418 3.582 8 8 8h352c4.418 0 8-3.582 8-8v-208c0-4.418-3.582-8-8-8zm-8 208h-336v-192h175.39c.21 0 .41-.01.61-.02.2.01.4.02.61.02h159.39z"/><path d="m88 368h-48c-4.418 0-8 3.582-8 8s3.582 8 8 8h48c4.418 0 8-3.582 8-8s-3.582-8-8-8z"/><path d="m120 368h-8c-4.418 0-8 3.582-8 8s3.582 8 8 8h8c4.418 0 8-3.582 8-8s-3.582-8-8-8z"/><path d="m376 312h32c4.418 0 8-3.582 8-8v-24c0-4.418-3.582-8-8-8h-32c-4.418 0-8 3.582-8 8v24c0 4.418 3.582 8 8 8zm8-24h16v8h-16z"/><path d="m376 264h32c4.418 0 8-3.582 8-8v-24c0-4.418-3.582-8-8-8h-32c-4.418 0-8 3.582-8 8v24c0 4.418 3.582 8 8 8zm8-24h16v8h-16z"/><path d="m376 216h32c4.418 0 8-3.582 8-8v-24c0-4.418-3.582-8-8-8h-32c-4.418 0-8 3.582-8 8v24c0 4.418 3.582 8 8 8zm8-24h16v8h-16z"/><path d="m104 152h40c4.418 0 8-3.582 8-8s-3.582-8-8-8h-40c-4.418 0-8 3.582-8 8s3.582 8 8 8z"/><path d="m128 168c0-4.418-3.582-8-8-8h-16c-4.418 0-8 3.582-8 8s3.582 8 8 8h16c4.418 0 8-3.582 8-8z"/><path d="m336 136c-13.245-.01-23.99 10.719-24 23.964-.005 6.116 2.328 12.003 6.52 16.456l-49.82 88.04c-1.548-.306-3.122-.46-4.7-.46-3.104-.004-6.179.601-9.05 1.78l-33.94-38.19c6.409-11.603 2.198-26.204-9.404-32.612s-26.204-2.198-32.612 9.404c-3.748 6.786-3.988 14.964-.643 21.958l-32.01 32.01c-3.225-1.553-6.76-2.356-10.34-2.35-13.255 0-24 10.745-24 24s10.745 24 24 24 24-10.745 24-24c.006-3.58-.797-7.115-2.35-10.34l32.01-32.01c6.093 2.921 13.136 3.128 19.39.57l33.94 38.19c-6.41 11.602-2.202 26.203 9.4 32.614 11.602 6.41 26.203 2.202 32.614-9.4 4.784-8.658 3.766-19.363-2.563-26.964l50.3-88.89c1.08.153 2.169.229 3.26.23 13.255 0 24-10.745 24-24s-10.747-24-24.002-24zm-200 152c-4.418 0-8-3.582-8-8s3.582-8 8-8 8 3.582 8 8c-.006 4.416-3.584 7.994-8 8zm64-64c-4.418 0-8-3.582-8-8s3.582-8 8-8 8 3.582 8 8c-.006 4.416-3.584 7.994-8 8zm64 72c-4.418 0-8-3.582-8-8s3.582-8 8-8 8 3.582 8 8c-.006 4.416-3.584 7.994-8 8zm72-128c-4.418 0-8-3.582-8-8s3.582-8 8-8 8 3.582 8 8c-.006 4.416-3.584 7.994-8 8z"/></g></svg>