<?xml version="1.0"?>
<svg xmlns="http://www.w3.org/2000/svg" width="512" height="512" viewBox="0 0 512 512"><g><path d="M496,424H333.91a128.363,128.363,0,0,0,63.82-88H440a24.032,24.032,0,0,0,24-24V264a24.032,24.032,0,0,0-24-24H400V224a8,8,0,0,0-8-8H120a8,8,0,0,0-8,8v88a128.1,128.1,0,0,0,66.09,112H16a8,8,0,0,0-8,8v12a28.031,28.031,0,0,0,28,28h68v4a28.031,28.031,0,0,0,28,28H380a28.031,28.031,0,0,0,28-28v-4h68a28.031,28.031,0,0,0,28-28V432A8,8,0,0,0,496,424ZM400,280h24v16H400Zm0,32h32a8,8,0,0,0,8-8V272a8,8,0,0,0-8-8H400v-8h40a8.011,8.011,0,0,1,8,8v48a8.011,8.011,0,0,1-8,8H400ZM288,344h48a8,8,0,0,0,8-8V293.29a87.31,87.31,0,0,0,16,2.46V312a88.1,88.1,0,0,1-88,88H240a88.1,88.1,0,0,1-88-88V280.3c11.88.92,18.86,3.92,26.18,7.05,9.45,4.06,20.17,8.65,40.48,8.65s31.03-4.59,40.49-8.65c6.17-2.64,12.09-5.16,20.85-6.45V336A8,8,0,0,0,288,344Zm40-61.62V328H296V276.28l16-10.67,16,10.67ZM128,312V232H304v19.72l-18.83,12.55c-15.15,1.03-24.25,4.92-32.32,8.38-8.83,3.78-17.16,7.35-34.19,7.35s-25.36-3.57-34.18-7.35C175.03,268.59,164.31,264,144,264a8,8,0,0,0-8,8v40A104.112,104.112,0,0,0,240,416h32A104.112,104.112,0,0,0,376,312V288a8,8,0,0,0-8-8c-10.46,0-17.61-1.3-24-3.37V272a8.033,8.033,0,0,0-3.56-6.66L320,251.72V232h64v80A112.123,112.123,0,0,1,272,424H240A112.123,112.123,0,0,1,128,312ZM392,476a12.01,12.01,0,0,1-12,12H132a12.01,12.01,0,0,1-12-12v-4H392Zm96-32a12.01,12.01,0,0,1-12,12H36a12.01,12.01,0,0,1-12-12v-4H488Z"/><path d="M336,80H272V72a24.032,24.032,0,0,0,24-24V32A24.032,24.032,0,0,0,272,8H128a24.032,24.032,0,0,0-24,24V48a24.032,24.032,0,0,0,24,24h96v8a24.032,24.032,0,0,0-24,24v16a24.032,24.032,0,0,0,24,24h72v40a24,24,0,0,0,48,0V142.63A24.044,24.044,0,0,0,360,120V104A24.032,24.032,0,0,0,336,80Zm8,40a8.011,8.011,0,0,1-8,8,8,8,0,0,0-8,8v48a8,8,0,0,1-16,0V136a8,8,0,0,0-8-8H224a8.011,8.011,0,0,1-8-8V104a8.011,8.011,0,0,1,8-8h8a8,8,0,0,0,8-8V64a8,8,0,0,0-8-8H128a8.011,8.011,0,0,1-8-8V32a8.011,8.011,0,0,1,8-8H272a8.011,8.011,0,0,1,8,8V48a8.011,8.011,0,0,1-8,8h-8a8,8,0,0,0-8,8V88a8,8,0,0,0,8,8h72a8.011,8.011,0,0,1,8,8Z"/></g></svg>
