<?xml version="1.0"?>
<svg xmlns="http://www.w3.org/2000/svg" width="512" height="512" viewBox="0 0 512 512"><g><path d="M472,96H416V40A32.036,32.036,0,0,0,384,8H128A32.036,32.036,0,0,0,96,40V96H40A32.03,32.03,0,0,0,8,128V400a32.03,32.03,0,0,0,32,32H204.9l-10.67,32H168a8,8,0,0,0-8,8v24a8,8,0,0,0,8,8H344a8,8,0,0,0,8-8V472a8,8,0,0,0-8-8H317.77L307.1,432H472a32.036,32.036,0,0,0,32-32V128A32.036,32.036,0,0,0,472,96ZM112,40a16.021,16.021,0,0,1,16-16H384a16.021,16.021,0,0,1,16,16V200H112Zm0,176H400v48a16.021,16.021,0,0,1-16,16H128a16.021,16.021,0,0,1-16-16ZM336,480v8H176v-8ZM211.1,464l10.67-32h68.46l10.67,32ZM488,400a16.021,16.021,0,0,1-16,16H40a16.021,16.021,0,0,1-16-16V384H488Zm0-32H24V128a16.021,16.021,0,0,1,16-16H96V264a32.036,32.036,0,0,0,32,32H384a32.036,32.036,0,0,0,32-32V112h56a16.021,16.021,0,0,1,16,16Z"/><path d="M96,392H48a8,8,0,0,0,0,16H96a8,8,0,0,0,0-16Z"/><path d="M128,392h-8a8,8,0,0,0,0,16h8a8,8,0,0,0,0-16Z"/><path d="M219.794,166.805a8,8,0,0,0,7.784.35l96-48a8,8,0,0,0,0-14.31l-96-48A8,8,0,0,0,216,64v96A8,8,0,0,0,219.794,166.805ZM232,76.944,302.111,112,232,147.056Z"/><path d="M136,256h49.376a24,24,0,0,0,45.248,0H376a8,8,0,0,0,0-16H230.624a24,24,0,0,0-45.248,0H136a8,8,0,0,0,0,16Zm72-16a8,8,0,1,1-8,8A8.009,8.009,0,0,1,208,240Z"/><path d="M112,352h64a8,8,0,0,0,8-8V312a8,8,0,0,0-8-8H112a8,8,0,0,0-8,8v32A8,8,0,0,0,112,352Zm8-32h48v16H120Z"/><path d="M224,352h64a8,8,0,0,0,8-8V312a8,8,0,0,0-8-8H224a8,8,0,0,0-8,8v32A8,8,0,0,0,224,352Zm8-32h48v16H232Z"/><path d="M344,352h64a8,8,0,0,0,8-8V312a8,8,0,0,0-8-8H344a8,8,0,0,0-8,8v32A8,8,0,0,0,344,352Zm8-32h48v16H352Z"/></g></svg>
