<?xml version="1.0"?>
<svg xmlns="http://www.w3.org/2000/svg" width="512" height="512" viewBox="0 0 512 512"><g><path d="M472,24H304a32.01,32.01,0,0,0-27.69,16H240V32A24.032,24.032,0,0,0,216,8H184a24.032,24.032,0,0,0-24,24v8a40.04,40.04,0,0,0-40,40H16a8,8,0,0,0-8,8V296a8,8,0,0,0,8,8H120a40.04,40.04,0,0,0,40,40h72v16a32.036,32.036,0,0,0,32,32h24V496a8,8,0,0,0,8,8h32a8,8,0,0,0,8-8V392h24a32.036,32.036,0,0,0,32-32V344h56a40.04,40.04,0,0,0,40-40V259.69A31.989,31.989,0,0,0,504,232V56A32.036,32.036,0,0,0,472,24ZM120,256H56V128h64Zm0-144H48a8,8,0,0,0-8,8V264a8,8,0,0,0,8,8h72v16H24V96h96Zm56-80a8.011,8.011,0,0,1,8-8h32a8.011,8.011,0,0,1,8,8v8H176ZM320,488H304V392h16Zm56-128a16.021,16.021,0,0,1-16,16H264a16.021,16.021,0,0,1-16-16V344H376Zm96-56a24.032,24.032,0,0,1-24,24H160a24.032,24.032,0,0,1-24-24V80a24.032,24.032,0,0,1,24-24H272V232a32.036,32.036,0,0,0,32,32H472Zm16-72a16.021,16.021,0,0,1-16,16H304a16.021,16.021,0,0,1-16-16V56a16.021,16.021,0,0,1,16-16H472a16.021,16.021,0,0,1,16,16Z"/><path d="M432,72H344a24.027,24.027,0,0,0-24,24v96a24.027,24.027,0,0,0,24,24h88a24.027,24.027,0,0,0,24-24V96A24.027,24.027,0,0,0,432,72Zm8,120a8.009,8.009,0,0,1-8,8H344a8.009,8.009,0,0,1-8-8V96a8.009,8.009,0,0,1,8-8h88a8.009,8.009,0,0,1,8,8Z"/><path d="M392,104a40,40,0,1,0,40,40A40.045,40.045,0,0,0,392,104Zm0,64a24,24,0,1,1,24-24A24.028,24.028,0,0,1,392,168Z"/><path d="M240,72H160a8,8,0,0,0-8,8V200a8,8,0,0,0,8,8h80a8,8,0,0,0,8-8V80A8,8,0,0,0,240,72Zm-8,120H168V88h64Z"/><path d="M184,136h32a8,8,0,0,0,8-8V104a8,8,0,0,0-8-8H184a8,8,0,0,0-8,8v24A8,8,0,0,0,184,136Zm8-24h16v8H192Z"/><path d="M184,184h32a8,8,0,0,0,8-8V152a8,8,0,0,0-8-8H184a8,8,0,0,0-8,8v24A8,8,0,0,0,184,184Zm8-24h16v8H192Z"/><path d="M200,224a48,48,0,1,0,48,48A48.054,48.054,0,0,0,200,224Zm0,80a32,32,0,1,1,32-32A32.036,32.036,0,0,1,200,304Z"/><path d="M200,248a24,24,0,1,0,24,24A24.027,24.027,0,0,0,200,248Zm0,32a8,8,0,1,1,8-8A8.009,8.009,0,0,1,200,280Z"/><path d="M456,304a8,8,0,0,1-8,8H392a8,8,0,0,1,0-16h56A8,8,0,0,1,456,304Z"/><path d="M424,288h24a8,8,0,0,0,0-16H424a8,8,0,0,0,0,16Z"/></g></svg>
