<?xml version="1.0"?>
<svg xmlns="http://www.w3.org/2000/svg" width="512" height="512" viewBox="0 0 512 512"><g><path d="M400,384a8,8,0,0,0-8,8v32a8,8,0,0,0,16,0V392A8,8,0,0,0,400,384Z"/><path d="M368,384a8,8,0,0,0-8,8v32a8,8,0,0,0,16,0V392A8,8,0,0,0,368,384Z"/><path d="M424,384a8,8,0,0,0-8,8v32a8,8,0,0,0,16,0V392A8,8,0,0,0,424,384Z"/><path d="M168,248a56,56,0,1,0,56,56A56.064,56.064,0,0,0,168,248Zm0,96a40,40,0,1,1,40-40A40.045,40.045,0,0,1,168,344Z"/><path d="M232,400H192a8,8,0,0,0,0,16h40a8,8,0,0,0,0-16Z"/><path d="M264,400h-8a8,8,0,0,0,0,16h8a8,8,0,0,0,0-16Z"/><path d="M104,144H72a8,8,0,0,0-8,8v24a8,8,0,0,0,8,8h32a8,8,0,0,0,8-8V152A8,8,0,0,0,104,144Zm-8,24H80v-8H96Z"/><path d="M160,144H128a8,8,0,0,0,0,16h32a8,8,0,0,0,0-16Z"/><path d="M136,168h-8a8,8,0,0,0,0,16h8a8,8,0,0,0,0-16Z"/><path d="M496,448H463.78l7.5-80H480a8,8,0,0,0,8-8V336a8,8,0,0,0-8-8h-9.38a23.878,23.878,0,0,0,0-16H472a24,24,0,0,0,0-48h-1.38A23.982,23.982,0,0,0,448,232h-1.38A23.982,23.982,0,0,0,424,200H328a24,24,0,0,0,0,48h1.38A23.982,23.982,0,0,0,352,280h1.38a23.878,23.878,0,0,0,0,16H352a23.982,23.982,0,0,0-22.62,32H320a8,8,0,0,0-8,8v24a8,8,0,0,0,8,8h8.64l6.67,80H320V432a8,8,0,0,0-8-8H296V128a8,8,0,0,0-8-8H198.62a23.878,23.878,0,0,0,0-16H200a24,24,0,0,0,0-48H104A23.982,23.982,0,0,0,81.38,88H80a23.982,23.982,0,0,0-22.62,32H48a8,8,0,0,0-8,8V424H24a8,8,0,0,0-8,8v16a8,8,0,0,0,0,16H496a8,8,0,0,0,0-16ZM104,72h96a8,8,0,0,1,0,16H104a8,8,0,0,1,0-16ZM80,104h96a8,8,0,0,1,0,16H80a8,8,0,0,1,0-16ZM56,136H280v56H56Zm0,72H280V424H56ZM304,448H32v-8H304ZM472,280a8,8,0,0,1,0,16H376a8,8,0,0,1,0-16ZM328,232a8,8,0,0,1,0-16h96a8,8,0,0,1,0,16Zm24,32a8,8,0,0,1,0-16h96a8,8,0,0,1,0,16Zm0,48h96a8,8,0,0,1,0,16H352a8,8,0,0,1,0-16Zm-24,40v-8H472v8Zm119.71,96H351.36l-6.67-80H455.21Z"/><path d="M264,280H244.32a80,80,0,1,0,0,48H264a8,8,0,0,0,8-8V288A8,8,0,0,0,264,280Zm-96,88a64,64,0,1,1,64-64A64.072,64.072,0,0,1,168,368Zm88-56h-8V296h8Z"/></g></svg>
