<svg xmlns="http://www.w3.org/2000/svg" width="512" height="512" viewBox="0 0 512 512">    <g>    <path d="M224,136a8,8,0,0,0-8,8v64a8,8,0,0,0,8,8h64a8,8,0,0,0,8-8V144a8,8,0,0,0-8-8Zm56,32H264V152h16Zm-32-16v16H232V152Zm-16,32h16v16H232Zm32,16V184h16v16Z"/>    <path d="M496,480h-8a8,8,0,0,0,0,16h8a8,8,0,0,0,0-16Z"/>    <path d="M501.66,258.34,440,196.69V112a8,8,0,0,0,8-8V80a8,8,0,0,0-8-8H376a8,8,0,0,0-8,8v24a8,8,0,0,0,8,8v20.69L261.66,18.34a8.015,8.015,0,0,0-11.32,0l-240,240A8.008,8.008,0,0,0,8,264v48a8,8,0,0,0,13.66,5.66L56,283.31V480H16a8,8,0,0,0,0,16H464a8,8,0,0,0,0-16h-8V283.31l34.34,34.35A8,8,0,0,0,504,312V264A8.008,8.008,0,0,0,501.66,258.34ZM384,88h48v8H384Zm40,24v68.69l-32-32V112Zm16,368H72V267.31L251.82,87.5,256,83.68l4.18,3.82L440,267.31Zm48-187.31L261.66,66.34a8.015,8.015,0,0,0-11.32,0L24,292.69V267.31l232-232,232,232Z"/>    <path d="M424,264H88a8,8,0,0,0-8,8V456a8,8,0,0,0,8,8H424a8,8,0,0,0,8-8V272A8,8,0,0,0,424,264ZM168,448h-8v-8h8Zm160,0H184v-8H328Zm24,0h-8v-8h8ZM120,424v-8H392v8Zm168-64v40H224V360Zm-40-24v-8a8,8,0,0,1,16,0v8a8,8,0,0,1-16,0Zm96,56V376h16l.01,16H344Zm72,56H368v-8h32a8,8,0,0,0,8-8V408a8,8,0,0,0-8-8H373.84a15.958,15.958,0,0,0,2.16-8V368a8,8,0,0,0-8-8H336a8,8,0,0,0-8,8v24a15.958,15.958,0,0,0,2.16,8H304V360a16.021,16.021,0,0,0-16-16h-9.38a23.841,23.841,0,0,0,1.38-8v-8a24,24,0,0,0-48,0v8a23.841,23.841,0,0,0,1.38,8H224a16.021,16.021,0,0,0-16,16v40H164.36l-25.19-39,23.07-23.82L174,348.94a8,8,0,0,0,11.31,0l22.63-22.63a8,8,0,0,0,0-11.31l-22.63-22.63a23.989,23.989,0,0,0-34.36,33.48l-27.7,28.58a8,8,0,0,0-.97,9.91L145.31,400H112a8,8,0,0,0-8,8v24a8,8,0,0,0,8,8h32v8H96V280H416ZM162.69,303.69a8,8,0,0,1,11.31,0l16.97,16.97-11.31,11.31L162.69,315A8,8,0,0,1,162.69,303.69Z"/>    <circle cx="256" cy="376" r="8"/>  </g></svg>