<?xml version="1.0"?>
<svg xmlns="http://www.w3.org/2000/svg" width="512" height="512" viewBox="0 0 512 512"><g><path d="M472,96H424.01c-.1,0-.2.01-.3.02A28.037,28.037,0,0,0,396,72H328V24A16.021,16.021,0,0,0,312,8H200a16.021,16.021,0,0,0-16,16V72H116A28.037,28.037,0,0,0,88.29,96.01c-.1,0-.19-.01-.29-.01H40A32.036,32.036,0,0,0,8,128V400a32.036,32.036,0,0,0,32,32H204.9l-10.67,32H168a8,8,0,0,0-8,8v24a8,8,0,0,0,8,8H344a8,8,0,0,0,8-8V472a8,8,0,0,0-8-8H317.77L307.1,432H472a32.036,32.036,0,0,0,32-32V128A32.036,32.036,0,0,0,472,96Zm-96-8h20a12.01,12.01,0,0,1,12,12V308a12.01,12.01,0,0,1-12,12H376Zm-32,0h16V320H344ZM200,24l112-.01V72h-8V40a8,8,0,0,0-8-8H216a8,8,0,0,0-8,8V72h-8Zm88,24V72H224V48ZM184,88H328V320H184Zm-32,0h16V320H152Zm-48,12a12.01,12.01,0,0,1,12-12h20V320H116a12.01,12.01,0,0,1-12-12ZM336,480v8H176v-8ZM211.1,464l10.67-32h68.46l10.67,32ZM488,400a16.021,16.021,0,0,1-16,16H40a16.021,16.021,0,0,1-16-16V384H488Zm0-32H24V128a16.021,16.021,0,0,1,16-16H88V308a28.031,28.031,0,0,0,28,28H396a28.031,28.031,0,0,0,28-28V112h48a16.021,16.021,0,0,1,16,16Z"/><path d="M96,392H48a8,8,0,0,0,0,16H96a8,8,0,0,0,0-16Z"/><path d="M128,392h-8a8,8,0,0,0,0,16h8a8,8,0,0,0,0-16Z"/></g></svg>
